<?xml version="1.0" encoding="UTF-8"?>

<svg id="banana" xmlns="http://www.w3.org/2000/svg" xmlns:xlink="http://www.w3.org/1999/xlink" viewBox="0 0 222.65 215.04">
<defs>
    <style>
    #pill { 
    transition: all 0.5s ease; 
    /* ensures the transform origin is calculated relative to the element’s bounding box */
    transform-box: fill-box;
    /* tells it to rotate around its own center. */
    transform-origin: bottom center;
    }

    #banana:hover #pill { 
        fill: red; 
    }

    #banana:hover #pill { 
        transform: rotate(5deg); 
    }
    </style>
  
 </defs>

 <defs>

 <linearGradient id="linear-gradient" x1="-466.68" y1="-399.39" x2="-360.6" y2="-446.32" gradientTransform="translate(555 -294) scale(1 -1)" gradientUnits="userSpaceOnUse">

 <stop offset="0" stop-color="#feaf59"/>

 <stop offset="1" stop-color="#fed390"/>

 </linearGradient>

 <linearGradient id="linear-gradient-2" x1="-396.58" y1="-339.31" x2="-444.96" y2="-347.08" gradientTransform="translate(555 -294) scale(1 -1)" gradientUnits="userSpaceOnUse">

 <stop offset="0" stop-color="#feea8e"/>

 <stop offset=".33" stop-color="#fee88a"/>

 <stop offset="1" stop-color="#fab25b"/>

 </linearGradient>

 <linearGradient id="linear-gradient-3" x1="-463.07" y1="-345.01" x2="-436.07" y2="-345.05" gradientTransform="translate(555 -294) scale(1 -1)" gradientUnits="userSpaceOnUse">

 <stop offset="0" stop-color="#d1954d"/>

 <stop offset="1" stop-color="#f7af5c"/>

 </linearGradient>

 </defs>

 <g id="body">

<g id="body-2" data-name="body">

   <path d="M76.06,86.04c5,4.96,3,10.46.1,16.17-6.45,12.72-12.77,14.65-26.1,15.83-6.72,0-24.95,1.22-30.06-.44-2.85-.93-4.31-3.94-3.79-6.82.43-2.38,19.21-21.24,22.37-23.71,13.43-10.49,24.04-9.89,37.48-1.02h0Z" style="fill: #febb69;"/>

   <path d="M150.06,167.04c-16.03,23.42-45.86,40.86-73.82,45.68-4.84.84-13.65,2.36-18.18,2.32-2.86-.06-2.73-2.32,0-3,.03-2.94,2.7-3.6,8-2,.62-1.26,1.59-1.67,2.86-1.87,23.77-3.79,56.8-13.62,63.24-39.71l1.91-1.42c3.8-.34,7.44-2.12,10.92-5.34l2.08,1.34c1.46,1.61,2.37,3.3,3,4h-.01Z" style="fill: #feb723;"/>

   <path d="M87.06,96.04c5.09,5.57,9.93,11.43,15,17-.91,3.32-8.15,4.92-11,3-2.95,4.25-11.88,9.2-17,8-2.3,3.35-8.68,6.5-12,4-1.4-1.65.34-3.01,2-4,1.68-2.59,3.32-3.22,5-5l-.17-2.74c5.8-6.09,11.09-12.81,14.41-20.57,1.36-1.95,2.51-1.66,3.76.31Z" style="fill: #d78c18;"/>

   <path d="M11.06,175.04c.33-.86.67-.86,1,0,2.9-.54,6.75,3.29,4,6,3.21,1.75,4.43.09,6.32-2.49l1.68,1.49c3.18.92,3.84,8.26,0,9,1.5,2.82-.39,10.34-4,6l-11-1c-4.09-.96-9.69-3.94-9-9,1.02-5.8,4.4-11.21,11-10Z" style="fill: #fb921a;"/>

   <path d="M86.06,94.04c.42.46.58,1.54,1,2-2.42-.53-2.07,1.23-2.82,2.63-4.85,9.03-8.3,13.04-15.18,20.37-5.68-1.85-12.94-.99-19-1,3.43-2.25,8.3-1.99,11.99-3.51,7.22-2.97,15.89-16.06,15.09-24.03-.2-1.94-2.44-3.72-1.08-4.47,4.29,2.83,6.28,3.95,10,8h0Z" style="fill: #eda659;"/>

   <path d="M24.06,189.04c1.46-1.55,2.63-1.63,3.9-.04.09,7.71,4.09,12.08,10.1,16.04.29-.41.6-.77.99-.98.82-.44,15.65,5.11,17.43,5.94l1.58,2.04v3c-11.34-.11-26.32-4.76-34.02-13.48-1.97-2.23-2.99-5.36-3.98-6.52,3.82-.35,1.6-1.73,2.58-4.15.39-.96,1.35-1.63,1.42-1.85h0Z" style="fill: #fca121;"/>

   <path d="M56.06,131.04c.67,3.18-6.84,7.31-9,5-14.65,9.58-23.68,23.35-30.49,38.97l-1.51-.97c-.35,2.2-1.28,2.35-3,1-.32.07-.68-.07-1,0-1.76.23-2.76-.1-3-1,2.08-.71,5.62-.97,5.87-1.13.66-.4,1.33-6.09,1.84-7.66,7.77-23.84,24.75-26.25,43.28-38.22,4.55-1.36-.25,2.96-3,4h.01Z" style="fill: #b89632;"/>

   <path d="M8.06,174.04l3,1c-2.54.52-5.03.64-6.91,2.59-.84.87-4,6.73-4.09,7.41.14-6.38,2.38-9.08,8-11Z" style="fill: #d59a1e;"/>

   <path d="M64.06,124.04c-.79,1.22-1.25,2.74-2,4,.85,3.19-4.22,6.29-6,3,1.02-.69,2.49-2.8,3.98-3.5l-.98-.5c1.55-1,2.66-2.98,5-3Z" style="fill: #c79f28;"/>

   <path d="M20.06,195.04c-4.29.39-7.08-.08-11-1,3.03.49,9.14-1.18,11,1Z" style="fill: #f7c192;"/>

   <path d="M123.06,137.04c1.39,2.53-1.17,5.95-4,5,.28.95-.05,1.28-1,1-4.39,2.15-8.76,4.62-13.12,7.42l-1.88-1.42c-1.54-2.37,2.09-7.88,5-7-1.1-2.74,3.22-7.53,6-7-1.16-3.2-7.42-5.91-12.18-7.64-2.62-1.65-9.49-6.07-10.76-8.34-.5-.89-.27-2.02-.05-3.02,4.07-1.43,6.93-2.07,11-3,7.15,7.86,14.13,16.38,21,24h0Z" style="fill: #f68f16;"/>

   <path d="M147.06,163.04c-5.35,1.03-8,9.18-13,4l-2.26-.89c-3.19-7.82-8.19-14.82-13.22-21.56l.48-2.56c1.28-1.7,2.46-3.51,4-5,7.83,8.68,16.1,17.27,24,26h0Z" style="fill: #fea416;"/>

   <path d="M134.06,167.04c1.5,12.7-15.27,24.98-25.08,30.42-14.58,8.09-26.51,11.07-42.92,12.58-4.2-.21-8.2-.67-12.08-2.46l-.92-2.54,2.89-1.36c20.38,3.1,43.58-3.29,58.82-17.03-1.06-.29-.9-1.55-.71-2.61l-1.07-2.15c7.05-10.49,7.27-19.61.67-27.38-2.04,1.13-3.57.98-4.6-.47.02-4.29,4.7-10.33,9-11,.28-.37.73-.64,1-1,3.81,4.35,14.4,19.93,15,25Z" style="fill: #febf18;"/>

   <path d="M39.06,187.04l1.87,1.27c.13,6.88,6.42,11.57,12.02,14.48l.11,2.26c4.68,2.06,9.09,2.67,13,5-3.38.31-6.96,1.91-8,2-4.65.41-15.66-4.67-20-7-5.31-1.92-13.35-14.22-9.73-18.46,1.84-2.15,9.87-2.8,10.73.46h0Z" style="fill: #feb115;"/>

   <path d="M74.06,124.04c2.79,2.33-.89,8.04-4,9l-.87,2.34c-15.7,6.12-30.95,17.8-38.72,32.96l-2.4.7c-1.19,3.28-2.52,3.94-4,2-.65-.64-1.26-1.48-.98-2.24,1.8-4.84,4.12-9.46,6.98-13.76l-.16-3.16c4.76-6.23,10.8-11.31,17.16-15.84,2.64-1.58,6.79-3.5,9-5,2.54.05,4.1-2.17,6-3,3.49-1.52,8.51-2.48,12-4h0Z" style="fill: #dbab1c;"/>

   <path d="M91.06,116.04c6.46,7.54,16.11,11.66,23.76,17.5-.06.59-.53,1-.76,1.5l-2.65.45c-7.66-5.19-16.48-5.78-26.45-1.78l-1.9-1.68c-3.08,2.54-10.49,4.04-13,1l4-9c5.75-2.5,11-5.89,17-8h0Z" style="fill: #eea017;"/>

   <path d="M118.06,143.04c-2.93,3.77-5.66,7.56-9,11,.56,2.81-6.3,8.47-8.95,10.24-8.44,5.65-36.78,22.98-45.91,20.62-.74-.19-1.45-.51-2.15-.87-3.25,3.14-9,6.01-13,3-3.2.53-9.4-1.75-10.05,2.53-.78,5.12,6.21,11.75,9.05,15.47-2.68-1.44-6.37-2.41-8.45-5.05-2.84-3.61-.23-9.89-5.55-10.95,1.22-3.75-.05-5.16,0-9-1.45-2.21.71-4.11,3-4,.28-.87.62-.86,1,0l4.76,1.21c4.13-1.13,7.88-1.2,11.24-.21l2.44-2.46c19.16-2.65,34.99-12.33,50.21-23.64l3.35.11c.64-2.43,1.64-3.1,3-2,.58-.39,2.54-.71,3.92-1.55,4.04-2.45,6.1-7.07,11.08-4.45h.01Z" style="fill: #fe9e13;"/>

   <path d="M24.06,171.04c3.65,3.49-5.96,16.26-8,10-.99-2.22-1.79-4.74-4-6,.32-.07,1.41-1.68,3-1,1.47.76,2.24.83,2.3.23,2.5-6.76,5.82-13.08,9.97-18.94l2.73-.29c-2.73,4.94-4.04,11.21-6,16Z" style="fill: #d59a1e;"/>

   <path d="M27.06,176.04c-.64,2.13-1.37,2.71-3,4-.75.59-3.31.29-3.87,2.7-.23,1.01,2.42,8.52-2.64,3.31-1.54-1.59-.97-3.82-1.5-5,1.94-.11,3.15.95,4.29-1.24s2.69-6.27,3.71-8.76l4-2c2.94,1.01.52,5.05-1,7h.01Z" style="fill: #e99e18;"/>

   <path d="M47.06,136.04c-7.09,5.95-11.63,11.61-17,19-1.84,2.53-4.13,5.01-5.81,7.69-1.45,2.31-6.08,13.21-7.7,13.29-.53.03-1.22-1.87-1.49-1.98,2.76.59,1.88-1.43,2.47-2.98,7.29-19.15,12.37-24.75,29.53-35.02Z" style="fill: #c79f28;"/>

   <path d="M77.06,139.04c1.92-1.71,3.23-1.54,5.51-.99,3.62-1.01,27.1-2.99,25.98,2.6-.1.48-.28.94-.49,1.4-1.52,1.86-2.91,5.13-5,7-1,.67-2.01,1.32-3,2-.97-1.67-2.11-2.67-3.42-3.01-17.98.73-57.86,3.08-52.58,29.01-4.43.75-14.78,5.11-16-1-.03-.66-.01-1.32.14-1.94,1.86-7.34,11.73-15.46,17.67-20.27,2.55-2.07,28-17.36,30.16-15.87.4.28.72.66,1.02,1.08h.01Z" style="fill: #fdb916;"/>

   <path d="M114.06,135.04c-1.55,3.5-4.13,4.72-6,7-5.47-5.88-18.25-2.39-25.51-2-1.74.09-3.65-1.11-5.49-1-2.76-2.86,3.01-6.05,6-7,12.27-2.2,19.18-6.76,31,3Z" style="fill: #feb517;"/>

   <path d="M109.06,154.04c.5-.27,4.1-1.57,4.51-1.59,2.76-.14,7.18,9.4,7.45,12.22.32,3.43-4.86,16.12-6.95,19.38.49.72.84,1.52.74,2.41-.22,1.99-12.52,9.15-15.06,10.34-13.28,6.19-30.32,9.86-43.29,1.31-5.45-3.59-13.37-9.83-4.39-14.05,17.16-3.91,30.95-10.13,45.31-20.19,3.87-2.71,8.39-8.01,11.69-9.81v-.02Z" style="fill: #fecc17;"/>

   <path d="M114.06,184.04c1.79,1.3,2.6,1.34,3.89-.6,2.4-3.61,5.27-12.99,5.11-17.4,3.29-1.03,2.08,5.46,1.87,7.38s-.88,5.66-1.64,7.36c-2.31,5.12-18.49,15.7-23.95,18.05-14.19,6.1-31.09,10.32-46.28,6.22-6.64-2.93-15.3-9.91-14-18,4.2-.69,8.8-2.04,13-3-8.32,7.81,11.31,15.85,16.74,16.76,12.79,2.15,38.04-5.52,45.26-16.76h0Z" style="fill: #fec015;"/>

   <path d="M83.06,132.04l-6,7c-1.21.07-19.18,9.37-21.67,10.83-11.1,6.5-20.39,15.32-27.33,26.17h-1c.53-1.75.32-5.01,1-7,4.92-14.32,27.72-32.18,42-36,3.71-.99,9.48-.37,13-1Z" style="fill: #edb618;"/>

   <path d="M44.06,177.04c-6.23-.69-1.5-11.7.14-14.36,8.3-13.42,35.78-16.03,50.4-16.68,3.87-.17,6.44.69,5.45,5.04-21.09,14.6-29.18,21.45-56,26h0Z" style="fill: #fec619;"/>

  </g>

 </g>

 <g id="pill">

  <g id="pill-2" data-name="pill">

   <path d="M88.06,94.04c.22-.69.56-.65,1,0,10.99.42,21.99.76,33,1l.74-1.17c4.08.55,8.16.6,12.26.17,4.54-3.19,26.96-3.13,30.41-.56.59.44,1.1.99,1.59,1.56,1.95-2.97,5.26,2.97,5,5,3.94-.75,7.99,5.46,10.3,9.09,3.41,3.93,4.31,7.24,2.7,9.91.15.51-.07,1.35,0,2-.3,11.03-.63,22.36-1,34,1.04,9.12.92,19.44,0,29-2.12,5.97-6.67,7.22-12.4,4.9-3.43-1.39-17.93-17.84-21.6-21.9-2.79,1.34-4.21-1.4-3-4-9.8-6.18-18.82-15.63-24-26-.94-.28-1.86-.6-2.72-1.04-5.84-3.02-15.46-16.58-18.28-22.96-6.87-3.06-12.64-9.88-15-17-2.78.12-2.95.08-1-2,.66.03,1.34-.05,2,0h0Z" style="fill: url(#linear-gradient);"/>

   <path d="M168.06,84.04c2.87.98,1.53,9.95-1,11-10.45-1.55-21.39-1.2-32-1-13.15,1.27-22.12.1-22.01-15.5,2.61-17.9,2.21-34.5-2.25-52.17-1.56-5.49-1.14-9.94,1.26-13.33l4.19-10.26L122.06.04c30.09,2.06,44.54,60.15,46,84Z" style="fill: url(#linear-gradient-2);"/>

   <path d="M105.06,7.04l1.23.51c-2.68,9.69-2.5,10.69.51,3l2.25.49c2.18-6.47,6.96-1.99,3,2-.77,14.63,4.52,26.43,4.9,40.61.21,7.68-1.83,18.18-1.93,25.93-.16,12.35,9.32,15.47,20.03,14.46-3.5.07-8.56.94-13,1-11.01-.25-22.01-.58-33-1-.29-.07-.66.03-1,0,1.82-5.37,3.97-10.63,5.32-16.18,1.64-6.75,2.83-14.28,3.68-20.82.38-11.61.72-23.27,1-35,1.18-7.98.83-9.24,7-15h0Z" style="fill: url(#linear-gradient-3);"/>

   <path d="M199.06,88.04c5.15,8.87,12.98,18.23,21.34,25.08l.66,2.92c-.46.62-.73,1.61-1.4,2.06-4.46,2.96-27.77-.26-34.6.94-1.92-6.71-8.04-14.23-13-19-.84-3.59.66-5.91,4.5-6.97l12.26-4.35c-.25-3.3.5-5.19,2.24-5.68,4.41,1.57,4.65,2.3,8,5Z" style="fill: #fec872;"/>

   <path d="M191.06,83.04c-.34,1.75.61,5.67-.14,6.86-.46.74-13.68,4.59-16.27,6.24-3.13,1.98,1.32,4.41-2.59,3.89-.99-.95-2.58-1.08-3.39-1.98.49-1.71-1.58-2.85-1.61-3.02-.66-3.94,1.14-8.75,1-11,8.45-3.58,14.41-4.06,23-1h0Z" style="fill: #fecb63;"/>

   <path d="M221.06,116.04c-8.41-5.65-16.07-15.41-21.54-23.96-.74-1.15-2.89-2.96-.46-4.04,4.83,3.9,18.88,16.87,22.01,21.49,2.2,3.26,2.03,3.79,0,6.51h0Z" style="fill: #fed588;"/>

   <path d="M113.06,2.04c.53,3.02-.8,6.02-4,9-1.4,1.42-2.23,2.83-2.72,4.78l-3.27,17.22c-.74-6.16-.87-12.07-.76-18.24l2.75-7.75c3.52-3.28,3.21-3.28,8-5h0Z" style="fill: #dc9a4d;"/>

   <path d="M122.06.04c0,3.32-3.47,2.78-3.78,3.17-1.07,1.34-1.71,8.77-6.22,9.83.04-.84-.65-2.66,0-4-.13-.17-2.63,1.63-2.99,2-.05-3.71,1.74-6.31,4-9,3.35-1.2,5.01-2.27,9-2h-.01Z" style="fill: #edb95f;"/>

   <path d="M97.06,57.04c.65-10.27-.84-21.47-.07-31.62.14-1.85.99-2.83,1.07-3.38-.97,10.23,1.28,22.66.06,32.61-.19,1.51-1.04,2.26-1.06,2.39Z" style="fill: #dc9a4d;"/>

   <path d="M185.06,155.04c-.28.87-.62.86-1,0,0-9.49-.14-19.02-.02-28.51.02-1.69-.64-4.45,1.02-5.49,1.06,9.84.11,23.71,0,34Z" style="fill: #fec872;"/>

   <path d="M184.06,184.04v-29h1c-.08,7.77,1.28,22.6-1,29Z" style="fill: #fed28d;"/>

   <path d="M122.06,95.04c-9.88.14-23.93,1.08-33-1,10.88.55,22.3-1.47,33,1Z" style="fill: #f7aa52;"/>

 </g>

 </g>

</svg>





