<?xml version="1.0" encoding="UTF-8"?>
<svg id="mango" xmlns="http://www.w3.org/2000/svg" viewBox="0 0 206.83 224.92">

<style>
    #mango { 
    transition: all 0.5s ease; 
    /* ensures the transform origin is calculated relative to the element’s bounding box */
    transform-box: fill-box;
    /* tells it to rotate around its own center. */
    transform-origin: center;
    }

    #mango:hover #body { 
        fill: red; 
    }

    #mango:hover #leaf { 
        fill: red; 
    }

    #mango:hover #body { 
        transform: rotate(-30deg); 
    }

    #mango:hover #leaf { 
        transform: rotate(-30deg);
    }
    </style>

  <g id="body">
    <g id="body-2" data-name="body">
      <path d="M149.76,27.65c4.35,3.37,5.68,6.37,4,9-2.88,1.26-5.54-.07-8-4l-1.12.84c-19.91-16.11-22.54-1.38-24.7,16.49l-2.18.66c.99,3.98-.18,10.36-4,12-.67,3.68-2,4.68-4,3-2.45-2.08-2.45-5.42,0-10l-1.89-2.16c1.03-7.51.88-14.94-.46-22.29l1.35-2.54c-1.2-7.05,9.33-9.17,15-10,11.77,1.44,15.96,3.09,26,9Z" style="fill: #fe8748;"/>
      <path d="M196.76,95.65c.85,2.52,1.3,4.64,2,7l1.13,10.44-2.13,1.56-2.54-.53c-5.36-7.06-13.2-11.1-23.5-12.11l-.96-2.36c-2.26.05-3.56-11.64-3.14-12.16l2.14-.84c-2.54-2.48,2.02-7.83,5-7,1.34-2.17,6.01-.07,8.19.96,6.79,3.22,10.43,8.6,13.81,15.04Z" style="fill: #fedd31;"/>
      <path d="M185.76,69.65c4.88,5.91,8.48,18.52,11,26-4.15-3.81-8.11-9.53-13.05-12.45-2.62-1.55-7.39-2.25-8.95-3.55-.43.26-.86.46-1.31.51-1.31.14-8.52-14.39-4.69-15.51-3.36-.52-2.3-5.83,1-5,5.87-2.53,13.27,4.34,16,10Z" style="fill: #fdc42b;"/>
      <path d="M70.76,31.65l-.7,3.46c-12.28,11.68-16.93,27-17.88,43.1-.58.83-1.4,1.29-2.43,1.44,2.71,2.2-2.9,9.85-6,10-2.88,2.2-3.88-.83-4.52-3.52-3.42-14.35,7.45-32.9,16.52-43.48.91-1.41,2.13-2.56,3-4-.05-3.76,5.44-6.07,9-6-.48-2.93.99-3.18,3-1Z" style="fill: #d05c25;"/>
      <path d="M67.76,145.65c2.81.28,8.39,8.66,6,11,1.64.91,1.66,2.85.06,5.84.68,4.77,0,8.49-2.06,11.16-1.21,3.08-5.25,2.45-7,0-.85-1.59-2.31-2.86-3-5-1.88-3.72-3.21-7.59-4-11.63l2-1.37c-1.96-3.36,5.43-14.48,8-10Z" style="fill: #ea9e57;"/>
      <path d="M43.76,89.65c2.27,1.78-.39,10.24-3,11-.4,3.08-4.83,1.74-5-1-1.76-21.38,3.48-42.53,20-57-7.34,11.48-17.56,29.02-14.57,43.07.33,1.56.91,3.33,2.57,3.93Z" style="fill: #c65e35;"/>
      <path d="M83.76,192.65l2.13-1.05c8.05,6.62,17.27,12.72,27.83,14.08l1.04,1.97c3.1-.38,6.19,4.66,4,7,.17,1.85-1.5,2.18-5,1-1.12.54-2.35.8-3.52.35-7.23-2.77-14.31-7.7-20.48-12.35-6.59-3.98-7.39-6.45-12-12-1.4-4.95,3.93-2.09,6,1Z" style="fill: #f3a386;"/>
      <path d="M204.76,128.65c1.56,10.31,2.27,23.4-3.23,32.56-1.22,2.03-5.3,5.63-7.77,4.44-1.94-.59-1.97-1.5,0-2l-1.13-2.38c5.26-7.18,7.08-15.76,6.04-24.66l-2.87-20.07,1.96-1.89c0-3.23,2-8.12,1-12,2.86,9.56,5.11,15.7,6,26Z" style="fill: #efe638;"/>
      <path d="M187.76,202.65c-7.12,6.34-26.95,18.93-36.18,17.04-.65-.13-1.24-.55-1.82-1.04-.4,2.68-1.2,2.54-2,0-1.45-4.16,5.41-7.03,9-8l.91-2.14c4.51-1.3,8.88-3.03,13.09-5.2l2,1.34c4.85-3.43,13.67-9.08,19.12-11.22l2.88.22c-2.8,4.33-3.57,5.28-7,9Z" style="fill: #bd8e70;"/>
      <path d="M170.76,45.65c5.86,7.04,11.63,15.44,15,24-5.83-7.07-9.69-6.62-16-10-.35.33-.71.62-1.12.79-.89.36-10.67-10.47-7.88-12.79-3.25.4-4.57-4.39-2-6l1.45-1.63c4.01.92,7.32,3.18,10.55,5.63Z" style="fill: #fea42c;"/>
      <path d="M206.76,151.65c-1.04,8.02-2.41,17.01-8.71,22.79-2.47,2.27-7.37,6.35-10.29,4.21-1.6.26-2.6-.4-3-2,.07-4.66,4.35-10.22,9-11,1.61-1.87,4.89-3.62,6.45-6.05,5.06-7.87,5.32-21.91,4.55-30.95,2.25,7.39,2.18,15.35,2,23Z" style="fill: #ead73d;"/>
      <path d="M40.76,100.65l2.03.84c1.4,5.71,2.73,11.43,3.97,17.16l1.88,1.86c.49,1.5,2.07,15.79,1.43,16.32-.39.33-.84.58-1.3.81,2.05,1.87,1.52,2.14-1,2-5.19-12.72-10.84-25.89-12-40l5,1Z" style="fill: #d0773e;"/>
      <path d="M203.76,171.65l-4.01,8.46c-2.15,3.23-7.13,9.13-10.99,7.54-2.05,1.89-3.67,1.47-5-1-2.71-1.7,1.02-9.17,4-8,.89-.96,5.45-2.66,7.33-4.17,3.78-3.04,8.75-11.17,10.21-15.79.76-2.4-.3-5.33,1.46-7.04-.19,8.26-1.16,12.3-3,20Z" style="fill: #dbc443;"/>
      <path d="M123.76,18.65c-3.16,2.6-7.51,3.15-10.95,5.55-1.7,1.19-2.94,3.92-4.05,4.45.64,3.47-7.93,4.08-10,2-2.83-.14-3.44-3.74-1-5-.73-1.98.4-3.53,3.41-4.66l6.59-2.34c7.12-.74,8.73-.89,16,0Z" style="fill: #fb6f42;"/>
      <path d="M187.76,202.65c-9.25,10.04-19.23,17.19-33,20-7.5-.05-9.17-1.38-5-4,14.17-2.27,26-8.67,38-16Z" style="fill: #b2838a;"/>
      <path d="M71.76,173.65c2.52-2.15,8.75,4.35,7,7,3.69-.14,6.21,8.76,5,12-1.28-.7-3.94-1.18-5.45-1.96l-.55.96c-5-6.02-9.21-10.95-13-18,1.88.36,5.54-.52,7,0Z" style="fill: #e9a773;"/>
      <path d="M199.76,185.65c-1.47,3.39-3.17,5.17-5,8-6.53,5.73-14.19,7.94-22,11-3.16-2.49,2.19-6.51,5-8,.04-3.01,4.39-5.48,7-4l12.51-8.15c.93-.62,1.72.24,2.49,1.15Z" style="fill: #c0a35b;"/>
      <path d="M53.76,139.65c.44-.28.88-.51,1.35-.57,1.84-.21,5.24,14.13,4.65,16.57-.32,1.34,1.45,11.29,2,13-6.37-8.84-9.93-19.03-14-29-.11-.71,1-1.84,1-2,2.04-1.27,4.86-.8,5,2Z" style="fill: #d8904f;"/>
      <path d="M170.76,45.65l-12-4c-1.91,2.29-6.5-2.57-5-5l-4-9c8.98,5.29,14.32,9.98,21,18Z" style="fill: #fe8b33;"/>
      <path d="M113.76,215.65c3.98.11,7.78,1.09,11.4,2.68l.6,2.32c3.95.17,5.95,1.17,6,3-15.37-1.39-31.5-8.7-42-20,8.15,4.93,15.53,8.12,24,12Z" style="fill: #ed9da4;"/>
      <path d="M199.76,185.65c-5.24,1.74-9.15,6.78-15,7-2.02-2.33,1.21-5.82,4-5,2.17-2.01,5.18-3.61,6.99-5.51,2.9-3.05,4.65-7.82,8.01-10.49-1.15,4.81-2.02,9.42-4,14Z" style="fill: #c4b148;"/>
      <path d="M147.76,218.65c.64-.09,1.37.1,2,0-.64,4.16.82,2.74,4.31,3.19l.69.81c-3.6.74-6.38.83-10,1-3.24.96-6.77.98-10,0-.97-.08-2.1.15-3,0-1.74-.29-4.9-2.63-6-3,1.38-3.03,5.4-2.54,8-1,2.47-3.28,10.89-3.55,14-1Z" style="fill: #cd8892;"/>
      <path d="M107.76,18.65l-10,7c-1.46,5.39-16.06,4.85-10-2,.56-.2,1.47-1.83,2-2,6.18-1.98,11.72-2.35,18-3Z" style="fill: #ec5b3e;"/>
      <path d="M144.76,223.65c-2.02,1.66-7.79,1.71-10,0,3.01.26,6.93.14,10,0Z" style="fill: #e5bfdd;"/>
      <path d="M109.76,65.65l1.82,1.92c-2.33,16.32-6.43,34.16-18.13,46.42l-2.69-.33c-.66,7.44-18.68,6.13-20,0-3.06-.68-4.44-10.1-2-12-.98-2.74,1.55-4.98,4-3l.69-2.23c10.35-.36,15.93-5.95,20.48-14.77l5.33-14.44,2.5-.56c1.24-5.88,3.9-9.55,8-11-.14,3.27.29,6.8,0,10Z" style="fill: #fc8b30;"/>
      <path d="M114.76,75.65c3.37,4.63,1.8,14.58.68,20.49-2.18,11.44-9.44,23.92-16.43,33.17l-2.25.34c-.52,2.57-1.05,2.75-3,1-2.35-.94-3.52-3.74-3.51-8.4-1.43-3.78-1.26-6.65.51-8.6,11.51-9.06,17.74-34.02,19-48l4-3c2.75,1.74,4.19,11.38,1,13Z" style="fill: #fe9e3f;"/>
      <path d="M145.76,32.65c4.19,2.78,9.16,11.28,5,15l-1.18.77c-9.16-6.59-15.27-6.32-18.35.8l-2.46.43c-1.75,3.56-3.25,7.34-3.83,11.28l-2.17.72c-4.26.18-5.37-7.28-5-11,2.99-13.43,1.63-34.33,22.32-22.82,2.1,1.17,4.12,3.84,5.68,4.82Z" style="fill: #fe995c;"/>
      <path d="M108.76,28.65c2.99,9.25,1.4,17.73,1,27-1.49,3.53-6.57,8.23-8,11l-1.72-2.35c2.69-10.84,1.76-20.81-2.78-29.89l1.5-1.76c-1.97-.5-1.94-1.4,0-2,2.58-1.23,7.87-.98,10-2Z" style="fill: #fe7f33;"/>
      <path d="M122.76,61.65c1.88,3.66.76,12.94-2,16-1.48,2.75-6.03.92-6-2,.05-4.5-1.41-9.01-1-13,.36-3.55,3.31-8.9,4-12l5,11Z" style="fill: #fe9f53;"/>
      <path d="M153.76,36.65c.68.53,4.82,4.7,5,5,.74,1.24.83,4.24,2,6,.37,2.5-1.31,5.1-4,5-2.07,1.85-5.78-.14-5-3-2.68.49-2.9-.1-1-2-.11-5.35-2.64-10.35-5-15,1.91,1.21,5.74,2.24,8,4Z" style="fill: #fe9f4b;"/>
      <path d="M197.76,114.65c.03,13.74,6.36,23.36,1.05,39.55-1.12,3.4-4.35,7.13-5.05,9.45-5.37,5.77-17.46-1.16-22.64-5.74-18.17-16.09-14.43-39.55-2.64-58.14l2.28-.12c11.01,3.3,21.28,3.28,27,15Z" style="fill: #feeb40;"/>
      <path d="M169.76,86.65c-.9,4.11,1.9,9.39,1,13-.23.92-3.62,5.87-4.47,8.03-5.02,12.78-8.65,21.63-3.29,35.23,4.72,11.96,17.19,22.77,30.76,20.74-.16.52.11,1.37,0,2-3.08,3.58-5.87,7.45-9,11-.2.9-.53.86-1,0-14,2.12-25.07-10.52-31.96-21.35-6.25-9.81-10.03-19.03-9.64-30.9.15-4.59.77-13.74,5.6-14.76l-.93-1.07c5.73-8.11,9.2-17.45,10.41-28.01l2.52-.92c-1.37-2.66.89-3.88,3-2,3-.07,7.68,6.08,7,9Z" style="fill: #feda4b;"/>
      <path d="M168.76,64.65c.19,2.07,4.73,13.95,6,15-.99,2-4.58,5.08-5,7-1.85-1.13-6.6-7.28-7-9-3.56-1.06-3.53-10.83-1-13,.35-3.03,6.4-2.89,7,0Z" style="fill: #fec73c;"/>
      <path d="M169.76,59.65c-.84,1.54-1.16,3.25-1,5h-7c-3.22-.14-7.01-9.49-5-12,.82-2.03,1.9-4.08,4-5,1.08,1.62,8.34,11.65,9,12Z" style="fill: #feb43e;"/>
      <path d="M65.76,57.65l2.1,1.4c.09,4.95.57,9.85,1.45,14.7l-1.55,1.9c-1.91,1.81-4.77,2.87-8.58,3.17-2.29,1.74-4.1,2.01-5.42.83-.42,3.02-3.31,2.77-4,0,1.21-3.55,1.3-11.74,2.29-16.21,2.8-12.55,9.3-23.03,18.71-31.79-1.7-3.51,3.77-5.55,7-5,.74-.36,1.97-.53,3-1,2.01,2.06,1.17,4.81-2.53,8.26-7.54,5.61-11.19,12.22-10.96,19.84l-1.51,3.9Z" style="fill: #e76321;"/>
      <path d="M53.76,79.65c.89-.15,1.72,0,2.45.54s5.54,15.31,3.55,16.46l-.11,2.35c-6.09,4.25-9.41,11.52-10.74,18.64l-2.15,1c-2.99-3.92-6-13.21-6-18,0-3.29,1.74-7.91,3-11s5.43-8.33,6-10c1.18-.21,3.02.3,4,0Z" style="fill: #de713a;"/>
      <path d="M116.76,134.65l.85,2.07c-4.04,8.8-8.32,17.48-12.83,26.03-6.9,6.24-14.24,11.87-22.02,16.9.03,2.85-2.71,3.63-4,1-.27-.41-6.53-6.83-7-7,.12-3.79-.22-7.62.08-11.41.14-1.75,1.98-5.06,1.92-5.59-.09-.95.09-1.84.6-2.65.58-.91,17.98-8.35,19.74-8.9l2.65.54c2.16-5.07,9.06-12.39,13.46-16.05l2.54.05c2.57-1.56,5.83,2.67,4,5Z" style="fill: #fbab60;"/>
      <path d="M96.76,129.65c4.86-2.33,2.1,12.79,0,16-7.93,6.1-14.9,6.12-23,11-.16-1.33-5.96-8.28-6-11-4.74-.97,2.54-12.5,6-11l1.17-2.23c6.36,1.27,11.84.41,16.44-2.56l2.39.79c.91-.58,1.94-.86,3-1Z" style="fill: #f89f50;"/>
      <path d="M73.76,134.65c-.55.2-4.4,6.14-5.22,7.33s-.52,3.23-.78,3.67c-.05.09-1.41-.19-1.99.73-1.17,1.86-5.68,7.89-6.01,9.27-3.11-1.97-3.99-15.08-6-16-2.59-1.88-.3-8.08.87-10.94,2.09-5.13,7.04-13.82,13.13-11.06,2.44-1.64,7.58,14.15,7.43,15.03s-.76,1.47-1.43,1.97Z" style="fill: #eb944d;"/>
      <path d="M116.76,167.65l3.57.53c9.56,8.14,21.08,13.37,32.48,18.41l1.95,3.06c.67,3.84-4.84,9.66-9,9l-1.38,1.97c-9.27,2.2-18.38,5.1-27.35,8.71l-2.26-1.69c-5.9.49-15.82-4.57-20.92-7.58-3.54-2.09-7.02-5.75-10.08-7.42-2.2-3.02-3.34-9.5-5-12,1.34-.24,2.65-.82,4-1l3.47-2.42c10.06-1.55,19.68-5.38,28.88-11.48l1.65,1.91Z" style="fill: #feae73;"/>
      <path d="M145.76,198.65c3.21-1.89,8.38-.97,9,3,1.16,3.06-4.81,8.42-8,7,.13.86.04,1.7-.41,2.45s-15,5.96-16.59,4.55c-.76,3.01-10.26,1.82-11-1l-4-7c8.16-.68,21.36-9.61,31-9Z" style="fill: #ec9b74;"/>
      <path d="M118.76,214.65c1.41-.06,10.2.71,11,1,2.43-1.6,5.03,1.57,4,4-2.44.2-5.2,1.67-8,1-5.33-1.8-7.15-2.78-12-5,1.68.17,3.53-.93,5-1Z" style="fill: #e39489;"/>
      <path d="M177.76,196.65l-5,8c-4.74,1.86-11.04,5.55-16,6-3.5,2.38-9.7,3.39-10-2,1.82-1.01,6.72-6.31,8-7-1.04-3.06,7.59-5.74,9-3,2.73-3.2,10.76-4,14-2Z" style="fill: #d49d67;"/>
      <path d="M146.76,208.65c2.48,2.27,6.8,2.29,10,2l-9,8c-4.93.7-9.24.61-14,1-1.23-.42-3.73-3.9-4-4,4.76-3.39,12.19-4.33,17-7Z" style="fill: #d79077;"/>
      <path d="M184.76,176.65c1.2-.18,4.16.31,3,2-.74.79-3.26,6.48-4,8-1.57,3.2-13.1,6.94-15,3-1.54,3.03-5.86,1.16-5-2-2.56-1.75,2.35-7.61,5-6l.24-2.23c4.95-2.13,9.36-3.13,14.76-2.77.29-.08.66.05,1,0Z" style="fill: #efc254;"/>
      <path d="M68.76,101.65c.36.49,2.19,10.97,2,12,2.82,1.64-.31,5.69-3,4-1.24.97-3.46,1.41-4.93,2.57-6.41,5.05-7.09,12.06-9.07,19.43-1.18-.54-3.72-.18-5-2-.14-6.05-2.77-11.38-2-19s5.86-18.44,13-22c2.31-1.84,9.74,1.91,9,5Z" style="fill: #e48142;"/>
      <path d="M183.76,186.65c1.75-.15,3.47.07,5,1-1.25,1.16-2.77,3.95-4,5-1.67,1.42-4.93,3.26-7,4-5.28,1.9-9.65,1.07-14,2-2.85-1.44,1.99-9.63,5-9,5.51.36,9.88-2.57,15-3Z" style="fill: #dfb25a;"/>
      <path d="M87.76,23.65c-.17,7.27,5.64,2.03,10,2,.59,1.63.74,3.31,1,5,.1.64-.15,1.47,0,2-.86,2.92-8.13,8.78-11,7l.23,1.39c-7.63,3.62-14.04,8.89-19.28,16.16l-2.95.44c-.59-7.9-2.27-9.06,3-16.5,3.43-4.85,10.78-9.54,12-15.5,2.17-.99,5.04-1.29,7-2Z" style="fill: #f4682a;"/>
      <path d="M98.76,32.65c.74,2.58,2.38,4.09,3.07,6.44,2.84,9.77,1.15,17.66-.07,27.56-4.37,8.48-3.69,15.41-11.49,24.01-7.33,8.09-8.81,5.73-17.51,7.99-.83-.16-1.8-.36-2.34-1.06-.59-.76-1.7-15.79.34-16.94l1.55-1.82c16.93.67,28.14-25.33,15.32-36.79l.13-2.39c3.5-2.11,6.78-5.93,11-7Z" style="fill: #fe7a25;"/>
      <path d="M90.76,113.65l3,17c-2.67,1.71-3.11,2.78-6.8,3.72-4.49,1.14-10.71-.61-13.2.28l-6-17c.79-.62,2.85-3.19,3-4,6.58,3.06,13.79,4.89,20,0Z" style="fill: #fa9743;"/>
      <path d="M67.76,75.65c2.67-.75,5.21,2.86,3,5,1.97,5.79.19,12.12,2,18-1.31.34-2.58,2.45-4,3-.31-.41-8.2-3.93-9-5-1.6-2.15-4.18-13.68-6-17,.77-.24,2.62-2.08,4.78-2.72,3.01-.9,6.04-1.58,9.22-1.28Z" style="fill: #ee702f;"/>
      <path d="M120.76,77.65c2.82.65,4.13,7.21,1,8l1.99,2.82c1.54,5.99-3.43,37.23-8.23,40.73-.79.58-1.83.55-2.75.44-2.64,3.45-12.44,13.26-16,16-.42-4.94.22-9.64.83-14.51.09-.69-.84-1.38-.83-1.49.41-2.64,10.3-15.75,12.37-20.13,5.34-11.24,5.5-21.69,5.63-33.87l6,2Z" style="fill: #fea84a;"/>
      <path d="M150.76,47.65c.39.3.59,1.64,1,2,1.72,1.67,1.45,7.11-1,8l-1.68,1.92c-10.28-.32-14.78,9.2-17.94,17.48l-2.39.6c-3.52-1.95-4.31-11.22-4.02-15.32.32-4.5,2.02-8.69,4.02-12.68,1.11-1.75,1.37-4.23,3.49-6.02,6.04-5.09,13.53.17,18.51,4.02Z" style="fill: #feb26d;"/>
      <path d="M128.76,77.65c3.59,2.39,4.89,9.73,2,13-3.38,2.22-8.8-.87-9-5,0-2.48-.97-5.03-1-8-.06-5.95.43-10.26,2-16s3.17-7.54,6-12c-3.52,9.95-1.75,18.19,0,28Z" style="fill: #feb15f;"/>
      <path d="M156.76,52.65c.74,1.02,4.64,10.39,5,12,.77,3.47.25,9.76,1,13-.59.62-2.77,1.56-3,2-3.96.26-6.37-6.57-7-10-2.57-1.57-4.74-10.04-2-12-.22-2.26-.6-6.51,1-8,.98.87,4.18,1.88,5,3Z" style="fill: #fec053;"/>
      <path d="M147.76,109.65c-12.41,24.46,8.89,63.16,36,67-1.79.47-13.64,4.4-15,5l-3.62-1.07c-10.82-16.34-22.31-32.12-34.45-47.34l-.93-3.6-1.19-.58c1.82-10.94,3.37-22.49,2.39-33.87l1.79-1.54c.28-.87.62-.86,1,0l2.46.93c2.11,5.3,5.99,9.72,10.96,12.52l.58,2.55Z" style="fill: #feca53;"/>
      <path d="M159.76,79.65c-1.96,3.76-2.75,15.04-5.5,21-1.58,3.43-5.34,6.72-6.5,9-6.62-3.16-11.73-8.95-14-16l.09-2.23c7.6-4.67,13.29-12.66,16.59-20.88l2.32-.9c3.77,2,4.25,6.9,7,10Z" style="fill: #fed05e;"/>
      <path d="M87.76,39.65c16.72,11.4,2.7,44.32-17,41-.5-1.46-2.4-3.1-3-5-1.59-5-1.6-12.6-2-18,4.47-5.42,8.68-10.91,14.66-14.83,2.3-1.51,5.58-2.11,7.34-3.17Z" style="fill: #fb6c19;"/>
      <path d="M124.76,133.65c2.85,1.57,3.92,10.54,2,13-.51,3.4-2.18,6.91-4.99,10.51-1.06,4.4-2.73,7.89-5.01,10.49-2.85-.87-14.05,7.67-17.46,9.04-5.16,2.07-11.11,2.22-16.54,2.96,4.44-9.33,14.02-9.62,20.41-18.09,3.77-4.99,11.21-25.19,13.59-26.91-1.14-3.86,6.83-4.21,8-1Z" style="fill: #feb765;"/>
      <path d="M130.76,90.65c2.74-1.07,4.05.88,2,3,.76,3.47.34,17.3-.02,21.48-.19,2.25-2.19,13.14-2.98,14.52,1.84,2.55-2.76,6.08-5,4-2.31.53-5.47-.84-8,1l-4-5c8.03-10.52,9.02-31.13,9-44,2.09,2.95,7.02,3.47,9,5Z" style="fill: #feba52;"/>
      <path d="M160.76,187.65c.42,2.91-4.49,4.46-6,2-13.32-5.94-27.26-11.83-38-22,.73-7.89,4.48-15.4,10-21,.6-.47,1.56-1.08,1.98-.73,12.33,10.1,23.83,28.13,32.02,41.73Z" style="fill: #febf6f;"/>
      <path d="M163.76,187.65c1.34.32,1.91,1.8,5,2l-5,9c-.82.17-8.58,2.77-9,3-2.7-.87-6.26-2.83-9-3,3.21-1.44,6.85-7.64,9-9,.27-.17,5.51-1.92,6-2,.73-2.85,2.2-2.84,3,0Z" style="fill: #edae66;"/>
      <path d="M168.76,181.65c-.36.16-4.21,5.07-5,6-.6-.14-2.32-.11-3,0-7.56-9.89-15.29-19.71-23.02-29.48-1.81-2.28-10.55-10.71-10.98-11.52-1.21-2.3-1.92-10.03-2-13,.4-.09,4.84-3.72,5-4,16.27,14.43,24.38,36.1,39,52Z" style="fill: #fec75f;"/>
      <path d="M150.76,57.65c.29,3.05,2.55,9.47,2,12-1.58,7.29-11.59,21.11-19,24h-1c-.04-.18-1.86-2.89-2-3-.3-4.38-1.23-8.69-2-13,4.1-10.48,8.65-21.11,22-20Z" style="fill: #fec26c;"/>
    </g>
  </g>
  <g id="leaf">
    <g id="leef">
      <path d="M46.76.65c2.29.88,1.81,1.62,0,3,2.71,1.32,2,3.02-1,3,.62.6.92,1.34,1.14,2.15.21.75-7.26,12.24-9.14,11.85.97,2.67-.73,3.58-3,2-2.54,2.97-6.6,4.53-9,1-.76-.15-1.88-.42-1.94-.98-.4-3.72.04-12.8,2.94-15.02,7.17-3.09,12.11-5.65,20-7Z" style="fill: #a1c327;"/>
      <path d="M25.76,23.65c-1.06,4.01-10.88,5.46-14.81,4.78-4.57-.79-11.78-3.15-9.19-8.78,8.42-3.68,16.58-8.37,25-12l-1,16Z" style="fill: #94b720;"/>
      <path d="M25.76,34.65c4.25-2.18,8.73-3.94,13.69-2.63,3.22.85,6.85,2.33,4.31,5.63-1.07,2.58-1.07,4.25,0,5,1.21-1.53,2.51-2.13,3,0-16.5,4.41-26.96,2.03-39-10,.17-1.03.74-1.68,1.74-1.89l9.11,2.87c3.67-.98,6.05-.64,7.15,1.02Z" style="fill: #9ba552;"/>
      <path d="M25.76,23.65c2.62-.49,6.17.48,9-1,.97,5.22-3.32,11.32-9,12-2.56.15-4.62,1.21-7.38.96-3.36-.3-6.97-3.12-10.62-2.96-2.75-2.75-11.44-9.93-6-13-.86,4.57,7.5,6.72,10.65,6.94,5.21.36,9-2.13,13.35-2.94Z" style="fill: #95ac36;"/>
      <path d="M81.76,12.65c1.88,2.58,2.59,4.29-1.14,4.98-1.4.56-24.28-5.87-26.05-7.27-4.64-3.65-3.03-8.15,2.19-9.72,12.54,1.91,15.89,3.62,25,12Z" style="fill: #c3e05c;"/>
      <path d="M56.76.65c-1.5,2.73-4.26,4.31-2.08,7.55,2.29,3.41,19.62,6.12,24.79,7.26,3.22.71,2.27-.42,2.3-2.81,2.03,1.87,3.13,2.86,5,5,2.16,5.54-10.82,5.35-13,2l-2.93.34c-8.96-2.87-17.39-6.46-25.31-10.78l.23-2.57c.5-1.07.81-1.79,1-3,1.82-2.84,5.15-3.84,10-3Z" style="fill: #bbd640;"/>
      <path d="M89.76,21.65c1.54,2.35.54,3.24-2,2,.33,2.89-5.6,4.5-7,2-.99,1.54-2.02,2.98-3,1l-11.52,2.17-2.48-1.17c-1.29.29-1.73.19-1-1-.91-3.29,7.9-8.85,11-7,3.79-.89,10.74,2.03,13-2,1.05,1.2,2.67,1.9,3,4Z" style="fill: #b3cb29;"/>
      <path d="M67.76,32.65c-3.21,1.97-5.19,4.19-9,6s-7.94,2.92-12,4c-.96.11-2.09-.16-3,0-.65-.66-1.48-1.81-1.08-2.26,2.31-2.67,11.38-9.41,14.08-7.74,3.27-1.84,10.36-5.33,11,0Z" style="fill: #93a613;"/>
      <path d="M56.76.65c-3.61-.22-6.91,1.38-10,3,.15-.94-.1-2.03,0-3,5.46-.94,4.72-.8,10,0Z" style="fill: #afc745;"/>
      <path d="M77.76,26.65c-1.92.95-5.37,3.48-7,5-1.07.13-2.08.43-3,1-3.15-1.26-7.78-.93-11,0-1.12-2.37,4.62-5.44,7-5,3.81-1.7,10.49-3.31,14-1Z" style="fill: #a3b915;"/>
      <path d="M45.76,6.65c7.27,7.83,19.87,6.33,28,13-2.01.47-8.6,5.68-11,7-.27.83-.61.81-1,0-6.67.96-16.61-1.37-23.07-3.71l-.93-2.29c1.5-5.01,5.97-9.68,8-14Z" style="fill: #afc745;"/>
      <path d="M61.76,26.65c-3.92,3.14-11.87,9.39-16.67,11.68-.27.13-.77-.21-1.33-.68-1.68-6.16-12.82-3.31-18-3,5.02-2.28,6.25-8.85,9-12,.28-.32,2.72-1.96,3-2l24,6Z" style="fill: #a3b349;"/>
      <path d="M63.76,27.65c-2.24,1-5.02,3.4-7,5-3.39.98-12.02,6.25-13,10-2.32.4-4.41,2.25-5-1.49,1.43-1.5,3.36-2.32,5-3.51,3.38-2.46,14.65-9.99,18-11,.24-.07.74-.04,1,0,.62.08,1.09.32,1,1Z" style="fill: #99a930;"/>
    </g>
  </g>
</svg>