<?xml version="1.0" encoding="UTF-8"?>
<svg id="orange" xmlns="http://www.w3.org/2000/svg" xmlns:xlink="http://www.w3.org/1999/xlink" viewBox="0 0 419.38 510.37">
<defs>
<style>
    #orange { 
    transition: all 0.5s ease; 
    /* ensures the transform origin is calculated relative to the element’s bounding box */
    transform-box: fill-box;
    /* tells it to rotate around its own center. */
    transform-origin: center;
    }

    #orange:hover #org_body { 
       transform: translateY(+90px);
    }
 #orange:hover #leef { 
       transform: translateY(+90px);
    }
    
    </style>
</defs>
  <defs>
    <linearGradient id="linear-gradient" x1="-281.37" y1="657.38" x2="-396.47" y2="713.38" gradientTransform="translate(468 -640)" gradientUnits="userSpaceOnUse">
      <stop offset="0" stop-color="#bfe232"/>
      <stop offset="1" stop-color="#91c11d"/>
    </linearGradient>
  </defs>
  <g id="org_body" data-name="body 1">
    <g id="body_1-2" data-name="body 1">
      <path d="M393.38,401.23c-7.42,13.17-16.42,25.57-26,37-8.22,2.08-16.35,5.73-24.39,10.93-27.96,10.52-54.22,24.52-80.22,39.04-15.2,8.23-31.28,14.63-47.84,19.32.95.52.71,1.66.45,2.7-6.62-.32-13.4.44-20,0-59.89-3.99-111.96-32.62-149-79-1.05-2.3.27-3.13,2.56-2.13,39.6,38.78,87.52,66.44,144.74,61.13,21.23-1.97,38.87-9.37,58.22-17.51,35.57-14.98,72.76-32.49,106.19-51.81,10.05-5.81,19.23-12.43,27.11-20.12,2.95-3.13,9.73-5.78,8.19.45Z" style="fill: #ec6c5d;"/>
      <path d="M215.38,510.23l-6-3.99c36.69-6.83,67.21-29.59,100.32-45.19,10.35-4.88,21.24-8.68,31.66-13.34,6.71-3,15.5-8.9,21.99-11.01,1.64-.53,4.64-1.73,4.03,1.53-34.57,41.26-88.28,69.03-142.58,70.95l-2.42,1.05h-7Z" style="fill: #e35d66;"/>
      <path d="M415.38,261.23c1.76,10.64,2.83,21.77,2.96,32.58l1.04,2.42v12h-1c-1.09-2.29-1.65-4.69-1.57-7.21-1.45,8.46-3.82,16.58-7.11,24.38l-2.31-.18c-2.8-.71-4.89-7.09-5-10-.61-.97-1.23-2.04-1.19-3.22.14-4.29,1.94-16.84,2.94-21.12l2.25-2.65c.17-4.45,3.41-26.95,6.14-28.35,1.64-.84,2.21-.54,2.86,1.35Z" style="fill: #f39154;"/>
      <path d="M276.38,102.23l-1.7,2.7c-20.1,8.68-34.2,30.98-43.77,50.12-16.49,33.02-32.19,93.71-4.45,123.77,41.28,44.73,122.22,43.72,160.34-4.98l3.57-1.61c4.45,2.83,4.43,11.72,4,17,2.69,1.58.04,10.89-3,11-3.48,14.2-22.07,22.93-34.88,27.84-53.07,20.37-109.2,9.18-149.34-31.09-32.99-33.11-18.27-105.77-1.23-144.27,8.62-19.47,23.97-51.44,45.44-57.48,9.72,1.86,15.82,3.84,25,7Z" style="fill: #fdb748;"/>
      <path d="M251.38,95.23c-3.14,4.61-9.31,5.13-13.39,9.11-5.01,4.87-13.16,17.65-17.02,23.98-23.83,39.06-37.93,90.78-28.27,136.1,4.07,19.09,10.69,27.29,25.21,39.79,41.76,35.94,103.19,41.93,151.49,15.55,9.79-5.35,16.15-9.62,21.98-19.52l1.72,1.76-2.59,19.97-2.13,1.27c-4.16,19.45-28.27,26.63-45.69,30.48-54.48,12.03-109.82-.83-149.41-41.25-41.57-42.45-10.92-120.49,9.51-166.43,5.76-12.95,12.21-27.33,19.56-39.35,4.62-7.56,7.28-10.97,16.03-13.44,4.7.61,8.31,1.1,13,2Z" style="fill: #feae3f;"/>
      <path d="M238.38,93.23c-.17,3.94-4.82,3.6-7.35,5.15-7.04,4.29-29.2,54.11-33.41,64.59-17.93,44.64-40.51,110.31-1.75,149.28,42.86,43.09,107.52,54.4,164.28,34.26,14.44-5.13,20.27-10.08,28.23-23.27,3.15,1.66,2.52,5.94,0,8,2.02,2.13-1.99,10.5-5,10-3.97,7.15-13.85,10.27-21.51,12.46-47.39,13.57-93.54,15.01-137.43-9.89-38.92-22.08-61.55-54.97-70.06-98.58-2.54-2.72-2-13.73,1-16l.81-5.08c25.29-38.32,43.47-81.56,55.66-125.04,2.97-2.83,6.15-5.46,9.53-7.88,5.3.27,11.62,1.3,17,2Z" style="fill: #f8a83a;"/>
      <path d="M172.38,95.23c.16,1,.28,1.99.27,2.99s-.04,1.91-.33,2.76c-9.81,29.03-20.12,58.35-37.56,83.52-4.31,6.22-20.37,27.46-25.98,29.28-.77.25-1.58.37-2.4.46,1.3,3.09-5.11,8.72-8,7-17.26,7.98-38.04,12.12-56.96,14.97l-4.04-.97.95-3.09c33.25-21.97,63.05-42.8,84.91-78.19,9.4-15.22,16.42-31.76,20.89-49.07-1.49-.22-1.86-1.05-1.74-2.65v-1c8.99-.73,20.46-4.34,30-6Z" style="fill: #df8e32;"/>
      <path d="M16.38,340.23l2.19.94c6.71,22.06,20.13,42.66,34.35,60.68l-.54,2.38c42.61,45.46,110.96,85.86,171.8,49.03,31.93-17.46,63.88-32.36,99.32-41.27,21.75-6.82,40.81-19.83,57.25-34.91l2.64.16,7.03-5.74c1.02-.39,1.51.66,1.97,1.74l-1.06,4.1c-29.91,34.41-69.68,48.99-111.19,64.19l-41.32,20.45c-27.68,14.1-58.6,21.97-89.43,13.27l-3.05,1.5c-46.34-12.69-93.5-49.9-117.46-91.6-7.39-15.27-15.56-29.9-24.49-43.9-1.62-8.23-3.5-16.59-4-25h2.76c5.56,7.26,9.75,15.6,13.24,24Z" style="fill: #f47e4c;"/>
      <path d="M308.38,116.23c-1,1.13-1.88,1.7-3.12.96l7.69,6.78-.57,2.26c-1.91,2.32-7.39-.02-7-3-6.61-2.68-14.1-5.56-21.05-7.29-12.06-3-14.71-3.07-22.71,7.06-19.9,25.21-29.23,40.99-37.43,72.69-.82,7.24-2.76,13.75-5.82,19.53l1.6,2.84c-3,18.32-5.66,35.91,7.18,51.11,32.39,38.39,91.07,45.73,133.46,19.58,20.06-12.37,26.09-20.91,21.92-43.68l1.84-1.85-2.2-2.29c-.22-8.68-1.15-17.25-2.8-25.71-2.79-.24-3.3-1.28-1-3,.17-1.95.76-2.22,2.48-1.56,2.08.79,7.78,16.26,7.52,19.56,2.4,1.72,5.4,12.26,2,13.5,3.28,1.65,3.13,14.06,0,16,3.05,1.85,2.73,10.39,0,12.5-20.27,30.38-61.83,44.1-97.38,40.88-30.11-2.73-76.05-26.13-81.57-58.43-7.27-42.58,8.14-92.17,33.51-126.38,8.43-11.36,17.54-21.69,31.44-26.06,9.78,3.37,18.83,6.91,28.26,11.24,1.5.69,3.11.92,3.74,2.76Z" style="fill: #fcbf55;"/>
      <path d="M136.38,104.23c2.11-.27,4.38.4,5.41,2.45,2.6,5.14-11.86,34.97-14.23,39-23.06,39.14-63.45,62.29-105.9,74.01-2.9-.92-3.33-3.73-1.28-8.45.8-4.53,3.4-5.89,5-9,1.96,1.05,2.32,1.12,1.07.21l11-7.38c31.93-15.79,67.16-39.72,78.04-75.5.78-2.58.62-3.26-1.11-5.33,7.12-3.59,14.29-7.56,22-10Z" style="fill: #d58634;"/>
      <path d="M405.38,374.23c-3.73,10.14-6.66,17.52-12,27-.86-2.25-1.71-2.19-3.71-1.26-2.59,1.2-9.95,8.84-13.57,11.48-29.11,21.27-78.34,42.57-112.04,57.96-22.78,10.4-44.79,20.45-70.19,22.81-59.29,5.51-101.71-23.06-144-59.98-.52-.45-3.17-2.89-3.49-1.01-6.87-8.6-10.39-13.65-16-23,1.17-2.33,5.02.64,6.38,2.02,48.31,59.7,119.13,94.57,194.62,63.98.57-1.98,3.18-2.84,5-2,6.06-2.13,12.06-4.47,18-7,11.04-6.01,22.5-11.52,34.38-16.52,20.59-9.71,41.18-19.65,60.65-31.47,18.25-11.08,35.76-23.19,48.17-40.56,2.32-2.77,8.04-8.54,7.8-2.45Z" style="fill: #ef7159;"/>
      <path d="M218.38,91.23c1,.04,2-.05,3,0,2.37,5.5-5.33,3.3-7.74,8.76-3.83,8.67-6.28,22.49-9.81,32.19-8.55,23.54-20.15,48.82-32.28,70.72-4.97,8.97-10.92,17.53-16.17,26.33-2.39-.45-2.75-2.3-2.86-4.49-.4-8.15-.51-17.91,1.86-25.51,1.38-8.15,4.11-16.23,8.19-24.22,9.3-28.72,21.12-55.88,35.44-81.47l-.62-1.32c6.26-1.65,14.43-1.25,21-1Z" style="fill: #f0a43a;"/>
      <path d="M114.38,114.23c7.71-.97.79,11.31-.82,14.68-17.24,36.01-40.66,49.31-73.85,67.15-3.77,2.03-7.83,5.99-11.36,7.64-1.89.88-3.4,1.4-2.97-1.47,20.1-39.06,49.71-68.21,89-88Z" style="fill: #c97c37;"/>
      <path d="M142.38,102.23c.21,0,4.01,1.22,4.02,1.52-10.3,42.4-34.94,76.49-68.52,103.48-7.87,6.33-15.27,10.39-23.41,15.59-5.58,3.56-11.51,8.65-17.09,12.41l-.2,2.17c-9.84,2.84-18.01,7.82-24.52,14.92-2.44,2.31-6.81,4.73-6.28-.09,3.3-14.02,6.56-28.42,14-41-.2,1.11.67,5.29,0,7,6.36-3.42,13.91-3.46,20.23-6.26,41.9-18.56,73.81-37.91,92.62-82.38,1.25-2.95,7.2-19.03,7.13-20.93-.09-2.36-3.25-2.44-3.99-4.43,1.46-.46,4.9-1.97,6-2Z" style="fill: #db8534;"/>
      <path d="M149.38,475.23c57.12,13.96,118.93-17.81,168.85-44.24,32.06-16.98,64.91-34.56,83.15-66.76-2.41-2.49,6.58-13.91,8.72-13.97,2.55-.08,2.68.43,2.28,2.97-1.94,6.92-4.5,14.21-7,21-.85-2.36-2.71.23-3.51.99-5.47,5.14-10.22,11.68-15.96,17.04-31.92,29.8-91.15,54.44-131.53,72.97-5.94,2.54-11.94,4.87-18,7-1.68.71-3.3,1.33-5,2-16.21,5.05-32.63,9.82-49.67,10.95-74.51,4.94-143.56-59.47-172.33-122.95-2.09-7-3.59-13.83-5-21,2.14,0,2.75,1.18,3.83,2.67,11.7,16.03,18.94,37.42,31.35,54.65,21.6,29.98,72.77,71.05,109.81,76.69Z" style="fill: #ee7851;"/>
      <path d="M98.38,221.23c-.64,2.99-2.62,5.26-5.93,6.82l-35.67,21.51c-14,8.04-24.19,19.27-33.4,31.67,1.64,2.9-5.58,12.07-9,12l-2.94-1.73c-5.25-10.43-7.18-20.29-7.06-31.27.61-3.13,1.36-5.27,2-8,.55,2.01,3.1.08,3.94-.56,3.25-2.49,5.79-6.65,9.35-8.65,2.91-1.64,14.6-6.89,17.71-7.79,14.13-4.11,29.08-5.04,44-9.5,5.56-1.66,11.27-3.51,17-4.5Z" style="fill: #e88b38;"/>
      <path d="M308.38,116.23c27.07,10.72,57.71,42.28,74,66,3.57,10.73,6.89,21.7,9.96,32.92l-.96,4.08c.7,3.58,1.05,10.12-3,11-3.4-4.53-4.63-10.29-7.18-15.37-.72-1.44-.45-3.14-2.82-2.63l-2.49-2.05c-9.42-32.97-32.56-63.55-62.13-81.01l-1.37-2.94c-3.46-3.81-22.15-17.19-4-10Z" style="fill: #f7b665;"/>
      <path d="M231.38,474.23c-82.83,32.62-141.89-.83-195.97-62.53l-5.03-3.47c-9.34-15.56-15.71-28.24-21-46,6.07,4.91,8.84,13.97,12.83,20.67,33.61,56.45,100.29,109.17,169.51,100.16,13.46-1.75,26.48-5.94,39.67-8.83Z" style="fill: #ed7557;"/>
      <path d="M14.38,293.23l1.46,2.14c-.99,8.56-.54,17.21,1.35,25.96l-1.81,1.91c1.91,4.82,2.73,9.8,2.77,14.96l-1.77,2.04c-7.08-6.7-8.93-17.15-16-24-1.14-19.2.34-37.24,4-56,3.63,1.23,1.03,4.47,1.31,6.37,1.32,9.04,5,18.31,8.69,26.63Z" style="fill: #ee8443;"/>
      <path d="M403.38,222.23c1.92,12.96,3.27,25.96.32,39.18l-2.32,1.82c-2.53-5.28-4.07-11.23-4.61-17.85-2.76-8.82-4.55-17.54-5.39-26.15-3.12-11.44-5.77-20.82-9.32-32.19-.45-1.44-1.53-3.87.32-4.81,9.71,14.14,14.6,24.16,21,40Z" style="fill: #f5a761;"/>
      <path d="M415.38,261.23c-2.47-.5-2.17,1.11-2.7,2.76-2.54,7.94-2.4,16.8-6.3,24.24-.77.08-1.92.12-2.14-.41-2.41-5.8-3.21-15.35-2.86-21.59-2.69-.85-2.71-2.08,0-3,1.56-9.51,2.41-15.53,2.04-25.54-.17-4.7-2.77-10.84-.04-15.46,5.7,14.11,9.45,23.64,12,39Z" style="fill: #f49b5a;"/>
      <path d="M418.38,308.23c.03,15.25-1.89,30.32-6,45-1.22-2.46-2.76-.53-3.87.63-2.19,2.27-4.69,7.39-7.13,10.37l-6.65,9.39-2.35-.39c-3.27.12-6.22,2.41-9,4l-.25-2.69c11.39-13.67,21.28-29.5,24.25-47.31-1.89-.57-1.88-1.44,0-2,4.71-6.05,5.64-23,9.5-28,.33-.43,1.24-1.34,1.49-1,.03,3.99,0,8.01,0,12Z" style="fill: #f08451;"/>
      <path d="M197.38,92.23c1.47.06,4.51-.97,3.99,1.49-2.45,1.38-3.44,2.8-4.79,5.18-17.01,29.94-27.21,68.95-42.2,100.33-.49,3.31-1.59,5.82-4.18,7.98l-15.45,15.24-3.37.78c-4.72.47-7.66-.71-8.82-3.53-2.98,1.41-5.58.63-6.21-2.77-5.36,1.28-8.68.38-9.97-2.7,22.15-21.2,34.75-40.28,47.17-68.33,7.31-16.5,12.23-33.91,18.83-50.67,8.63-1.5,16.04-3.36,25-3Z" style="fill: #e99934;"/>
      <path d="M406.38,288.23c-.84,8.92-1.43,18.42-4,27,2.33,3.53-2.58,11.82-6,13-.69,2.56-5.96,4.82-8,3,.16-2.64-.23-5.38,0-8,.56-6.29,1.87-16.95,3-23,.56-2.97,2.12-7.83,3-11-.16-7.55,2.08-17.53,7-23l5,22Z" style="fill: #f8a14b;"/>
      <path d="M401.38,263.23c-.15.93.18,2.12,0,3-1.72,8.44-4.79,14.98-7,23-.96-5.08-3.53-12.13-4-17-.39-4.01,0-8.68,0-12.5v-16c0-3.66-2.44-8.72-2-13.5.29-3.13,2.42-7.64,3-11,.41,1.51,1.91,3.72,2.49,6.01,3.16,12.51,6.74,25,7.51,37.99Z" style="fill: #f9b058;"/>
      <path d="M383.38,341.23c.65.35,1.31.75,1.68,1.4,2.6,4.56-18,28.2-26.03,24.79-49.76,3.83-99.17,20.44-146.42,37.62-10.05,7.75-19.8-.11-27.96-7.28-33.57-29.47-58.58-73.89-76.83-113.56l1.56-1.98c-2.9-.84-1.73-5.52,1-6l2.22-.86c10.78,5.72,23.2,1.26,33.32-3.81,1.85-8.45,3.92-16.92,6.22-25.43l2.25-.9c6.31,13.12,9.56,27.56,15.79,40.71,17.48,36.9,58.83,64.07,98.18,72.82,27.14,6.04,75.01.09,101.29-9.77,5.29-1.99,8.98-5.12,13.74-7.76Z" style="fill: #fea035;"/>
      <path d="M109.38,282.23c.43,4.07,13.83,29.72,16.83,34.67,16.72,27.54,41.27,69.32,68.53,85.47,1.62.96,2.7,3.13,4.29,3.56.39.11,7.12.25,7.62.15,1.7-.35,3.34-2.19,5.2-2.88,42.92-15.81,80.82-28.08,126.31-35.69,7.65-1.28,21.86-1.26,28.24-3.76,4.38-1.71,13.62-12.92,15.73-17.29.9-1.87.76-4.17,1.25-5.23.99-2.14,3.85-8.89,5-10,1.32-1.28,5.92-3,8-3,1.91.54,1.93,1.43,0,2-2.77,22.92-21.53,41.9-40.34,53.43-54.63,5.92-106.3,23.73-155.6,48.22-8.22,3.12-26.24,9.28-35.09,6.58-4.32-1.31-22.23-12.71-26.98-15.92v-2.32c-.41-2.86.41-5.89,2.47-9.07,11.22-33.4-14.71-84.27-35.89-109.84l-.57-4.09c-2.11,1.36-8.77-8.95-9.4-10.63l.4-2.37c1.12-1.96,3.76-2.47,7.93-1.52,2.48-1.23,4.5-1.39,6.07-.48Z" style="fill: #fc973d;"/>
      <path d="M155.38,229.23c0,4.64-.21,11.53-1,16-.55,3.07-2.9,8.79-3.73,12.77-.9,4.28-.2,12.95-3.73,15.27-1.24.81-11.75,5.1-13.48,5.52-7,1.73-17.28,2.11-23.06-2.56-2.39-.97-6.95-6.02-8.61-8.57-1.08-1.65-1.95-4.97-.39-6.43-1.13-3.28,1.19-6.37,6.96-9.26,2.04-6.05,5.77-11.07,11.2-15.05l9.51-13.99,2.33.3c7.08-8.3,16.41-15.09,23-24,.6,8.41.14,16.87.14,25.4,0,1.44.86,3,.86,4.6Z" style="fill: #f59d30;"/>
      <path d="M106.38,214.23c4.1,1.5,7.89,1.26,11.99,0-1.11,10.13,7.79-1.2,9,0,.58,1.87-3.02,4.53-2.97,5.5.14,2.93,7.85-.48,6.98,3.49-3.04,3.57-7.26,10.97-9.96,14.54-2.17,2.86-6.57,5.54-8.5,8.5-1.42,2.18-1.66,5.22-3.04,6.96-1.79,2.26-7.23,3.69-8.5,8l-1.98,1.15c-21.67-6.5-42.9-3.32-60.14,12.3l-2.88-.44c.02,3.97-9.61,7.94-13,7,1.51-5.82,6.32-11.74,10.46-16.04,18.65-19.4,43.81-27.63,64.54-43.96,3.17-2.5,5.1-4.22,8-7Z" style="fill: #ee9435;"/>
      <path d="M383.38,377.23c-5.99,6.39-17.32,14.69-24.69,19.81-27.74,19.31-55.02,20.5-85.28,33.72-29.4,12.85-66.67,38.81-98.69,39.4-43.64.8-91.34-30.9-119.86-61.92-1.13-1.23-2.5-2.06-2.48-4.02l4.99,2.3c18.65,18.96,41.48,33.56,66.77,41.87l9.24,4.84,1.94-1.2c12,6.63,16.47,8.32,29.95,4.98,4.9-1.21,9.94-2.74,14.68-4.45,24.82-8.95,49.18-20,73.27-31.31l3.15-.02c29.27-13.67,61.46-20.75,92.07-26.99,24.45-14.78,47.79-36.17,56.07-64.71l2.86-2.3c.13,16.18-13.33,38.63-24,50Z" style="fill: #f88648;"/>
      <path d="M39.38,349.23c1.99-1.4,2.72-.33,3.83,1.36,12.82,26.56,31.03,49.27,58.13,62.99l1.03,2.65c1.82,1.38,3.02,3.36,3.63,5.97,7.78,10.11,17.35,19.35,26.75,28.22l.63,2.82c-31.76-8.43-58.67-25.18-81-49-10.96-11.7-33.84-48.81-36-64-.72-5.04-.51-11.75-1-17l2.53.3c3.92,11.33,10.56,18.75,19.91,22.26l1.56,3.44Z" style="fill: #f68b4a;"/>
      <path d="M149.38,475.23c61.53,9.37,87.74-18.14,138.32-39.18,17.05-7.09,32.6-10.66,49.35-19.65,23.08-12.4,37.99-24.15,55.33-43.17,2.37-2.6,6.19-5.56,9-9-2.66,7.64-8.19,15.89-13.49,22.01-23.25,26.87-92.82,59.2-126.83,74.17-27.5,12.1-61.78,23.82-92.1,19.74-5.84-.79-13.81-3.19-19.58-4.92Z" style="fill: #f47950;"/>
      <path d="M218.38,215.23l1.14-2.22c6.37-2.12,8.54,2.76,6.52,14.64,2.01-.42,3.82-.51,5.2,1.29.93,15.76,3.34,21.75,14.81,32.66,39.65,37.7,105.38,29.67,132.19-18.53,2.33-2.75,5.09-4.14,6.14.17,1.05,12.46,3.95,24.77-6.09,34.41-39.04,37.46-105.44,38.22-144.92,1.11-22.01-20.69-19.16-35.6-14.99-63.51Z" style="fill: #fec254;"/>
      <path d="M254.38,465.23c-5.78,2.65-11.36,6.51-18,7,5.71-2.41,11.6-5.92,18-7Z" style="fill: #ed7557;"/>
      <path d="M43.38,292.23l1.02,2.22c-8.18,16.52-6.71,33.79-3.33,51.79l-1.69,2.98c-3.39-3-8.09-3.14-11.41-6.09-5.27-4.68-8.8-13.98-12.59-19.91-.84-9.04-4.01-21.09-1-30,.35-1.02,7.96-11.02,9-12,2.08-1.96,9.45-4.58,13-7l2.25.91c.63,5.5,2.4,10.43,5.29,14.8l-.55,2.3Z" style="fill: #f69142;"/>
      <path d="M407.38,325.23c.08.63,0,1.35,0,2-4.45,13.86-9.42,25.37-19.03,36.47-8.05,9.3-33.54,31.1-44.91,34.09-5.35,1.4-12.42,1.62-18.09,2.91-23.51,5.31-46.54,11.75-68.96,20.54.48-.79.98-1.55,1.59-2.22s1.16-1.26,1.86-1.6c28.71-13.75,58.43-21.72,89.02-27.02,20.65-13.98,44.28-34.01,47.54-60.16.12-.62-.13-1.42,0-2,.68-2.96,4.71-8.67,6-13,2.98,2.17,4.58,6.53,5,10Z" style="fill: #f78d45;"/>
      <path d="M101.38,261.23c1.45,1.19,1.1,3.7,2.1,5.41,1.62,2.78,5.79,4.16,6.9,9.59.24,1.18-1.08,5.26-1,6-4.94,3.79-8.34,2.26-14,2l-2.69.42c-14.44-9.9-35.56-5.9-46.61,7.3l-2.69.28c-4.72-4.35-5.58-11.88-7-18,13.38-9.1,19.4-15.79,37.51-16.99,4.95-.33,24.03,1.17,27.49,3.99Z" style="fill: #f5983d;"/>
      <path d="M256.38,421.23c-22.4,10.61-42.37,21.54-65.74,29.76-8.43,2.97-31.78,11.31-39.5,10.05-2.51-.41-15.17-6.22-17.76-7.81-6.72-4.14-11.56-10.79-16.97-16.53-5.84-6.19-13.44-10.8-14.03-20.47l2.76-1.06c8.84,2.36,17.91,3.39,27.21,3.1l2.03,1.96c.99-2.75,3.02-2.79,4,0l27.97,16.54c2.7.72,9.43-.07,12.45-.61,23.79-4.27,47.81-19.53,70.59-28.41,23.39-9.12,49.11-16.4,73.76-21.24,9.59-1.88,23.59-2.18,32.26-4.74,8.1-2.39,31.19-27.1,35.14-34.86,2.68-5.28,3.27-11.38,5.83-16.67-.99,5.3-.83,10.23-2.72,15.78-4.5,13.23-34.03,43.86-47.44,47.56-4.95,1.36-9.67.97-14.11,1.89-28.34,5.87-49.8,13.49-75.73,25.77Z" style="fill: #fa8f42;"/>
      <path d="M95.38,284.23c3.93,3.34,6.27,9.38,9,13-.5,6.07-3.24,14.43-10.17,6.91-5.53,3.15-10.47,3.18-14.83.09l-1.56,1.81c-25.86-5.87-27.77,30.92-22.46,48.5,5.5,18.22,26.96,41.73,47.65,33.7l2.38.99c2.2.4,4.18,2.34,5.95,5.84,8.73-2.55,11.51,4.44,14.19,11.3l7.01,7.04c3.17,2.88,3.78,5.16,1.84,6.83-11.37-.75-20.81.72-32-4-15.81-6.67-36.98-25.64-46.81-39.69-4.85-6.94-11.18-22.88-16.19-27.31-1.09-11.47-4.05-22.86-2.98-34.48.42-4.63,4.48-18.88,6.98-22.52,10.73-15.59,37.29-20.5,52-8Z" style="fill: #fa9d46;"/>
      <path d="M138.38,420.23c-1.33-.06-2.68.09-4,0-1.39-5.4-8.48-9.53-11.03-13.47-1.02-1.58-.99-3.52-1.92-5.08-5.41-9.13-7.73-3.13-11.04-4.88-1.19-.63-4.62-5.78-5.01-7.57-.48-.76-.6-1.57-.17-2.36,12.71-23.58-4.63-63.98-24.92-79.53l-.91-3.1c2.15.21,4.66,1.19,6.4,1.02,2.92-.28,4.22-3.31,8.1-3.14,4.17.18,2.25,3.75,5.99,3.11,2.51-2.96.36-5.63,4.51-7.99,16.91,22.44,28.03,37.79,35.72,65.78,5.11,18.64,9.95,40.04-1.72,57.22Z" style="fill: #fe9d46;"/>
      <path d="M79.38,304.23c18.18,12.27,30.06,38.12,31.88,59.62.53,6.29.31,21.73-5.88,25.38-16.67,9.82-37.14-7.25-45.82-20.68-9.46-14.62-11.91-37.14-4.35-53,3.28-6.88,8.57-12.5,16.7-12.39,2.67.04,4.91.83,7.48,1.07Z" style="fill: #fea152;"/>
      <g id="body_2" data-name="body 2">
        <path d="M305.38,123.23c1.54.51,5.39,2.23,7,3,28.8,13.88,59.8,54.87,66,86,.17.86.83,1.8,1,3,4.5,14.54,1.67,26.47-7.63,38.21-27.26,34.44-77.7,42.12-114.12,17.58-23.34-15.73-28.27-28.69-26.09-55.89,2.71-33.87,17.04-61.74,40.22-85.54,11.55-11.86,18.33-14.55,33.62-6.36Z" style="fill: #fecf63;"/>
        <path d="M305.38,123.23c-3.66-1.21-14.05-3.52-17.55-3.07-3.98.51-17.11,12.9-20.48,16.54-23.04,24.84-36.4,63.21-34.01,97.07.67,9.42,2.18,12.81,8.07,19.93,29.91,36.13,85.5,39.85,119.98,8.04,14.78-13.64,20.93-26.17,17.99-46.51,3.65,8.76,4.21,18.62,5,28-1.87-1.39-2.47-1.03-4.01.47-2.47,2.4-5.25,8.62-8.02,12-28.17,34.32-77.98,41.52-115.28,17.34-7.11-4.61-23.2-18.7-25.22-26.78-.85-3.38,0-15.96-3.13-16.92-.94-.29-2.58.84-3.4.4-3.47-1.88.17-11.88-.95-15.51l-5.99,1c4.92-32.9,16.38-64.67,38.49-90.01,1.79-2.06,10.35-11.11,11.96-12.04,7.23-4.16,29.75,5,36.55,10.05Z" style="fill: #fbc255;"/>
        <g>
          <path d="M299.17,139.53c28.68-2.86,55.73,25.81,64.24,51.17,18.22,54.29-62.96,97.54-104.01,51.01-13.57-15.38-12.66-27.94-8.16-47.1,3.34-14.23,10.82-28.67,20.16-39.84,8.8-10.51,13.52-13.82,27.76-15.24Z" style="fill: #fed469;"/>
          <g>
            <path d="M297.13,153.49c44.66-6.04,72.46,43.68,44.22,78.22-29.56,36.14-94.5,8.73-80.7-39.7,5.29-18.57,15.78-35.72,36.48-38.52Z" style="fill: #feda6f;"/>
            <circle cx="305.03" cy="200.54" r="27.78" style="fill: #fee57b;"/>
          </g>
        </g>
      </g>
    </g>
  </g>
  <g id="leef">
    <g id="leef-2" data-name="leef">
      <path d="M122.38.23c4.29.92,8.69.69,13,0,10.58.85,22.75,5.31,32.02,10.48,27.99,15.6,48.81,48.45,50.98,80.52l-1.99,1.92-14.03.2c-1.06-1.52-2.72-1.9-4.98-1.13l-2.51,1.96c-6.63.26-13.2,1.12-19.69,2.58l-2.79-1.53-2.04,2.39c-7.99,2.52-20.15,5.7-27.96,3.61C81.73,106.14,38.34,58.57,36.37.23c28.63.56,57.39-.73,86.01,0Z" style="fill: url(#linear-gradient);"/>
      <path d="M135.38.23c-3.21,1.7-9.99,1.67-13,0,4.25.11,8.84-.33,13,0Z" style="fill: #c2e441;"/>
      <path d="M51.38,25.23c8.71,18.79,12.57,28.59,27.46,44.04,3.27,3.39,13.14,10.22,15.06,13.94,2.83,5.5-6.31,1.19-8.19.19-17.95-9.57-36.11-34.29-40.33-54.17-5.77-17.21.84-22.64,6-4Z" style="fill: #9fc749;"/>
      <path d="M51.38,25.23c-.48-1.03-5.29-11.94-6.99-9.99-.15,4.64.03,9.45.99,13.99-2.67-3.22-6.26-22.83-2.49-23.99,2.02-.62,2.89.75,3.71,2.27,2.12,3.94,3.04,13.05,4.78,17.72Z" style="fill: #95c328;"/>
      <g>
        <path d="M160.38,11.23c5.73,2.84,12.28,6.71,17,11,4.32,2.22,22.26,21.19,11.46,22.01-4.1-1.87-7.92-4.21-11.46-7.01-7.2-3.74-17.25-9.68-24-14-20.79-7.17-9.75-19.93,7-12Z" style="fill: #d0f05f;"/>
        <path d="M160.38,11.23c-16.48-2.83-23.5,1.44-7,12-6.08,1.59-30.63-13.94-17.29-17.79,7.31-2.11,17.86,2.61,24.29,5.79Z" style="fill: #c2e441;"/>
        <path d="M177.38,22.23c5.44,1.16,23.12,22.88,19,27-6.85-.85-13.98-7.19-19-12,2.74,1.42,8.98,4.9,11.49,5.03,2.69.14,1.63-3.42,1.06-5.07-1.11-3.22-9.67-12.35-12.54-14.96Z" style="fill: #cced52;"/>
        <path d="M159.04,17.39c6.73-2.16,18.43,6.11,22.34,11.34,10.58,14.18-9.55,3.34-14.73-.27-2.1-1.47-13.7-9.12-7.61-11.07Z" style="fill: #d9f771;"/>
      </g>
    </g>
  </g>
</svg>