<?xml version="1.0" encoding="UTF-8"?>
<svg id="pinapol" xmlns="http://www.w3.org/2000/svg" viewBox="0 0 173.88 224.87">
<defs>
 <style>
    #pinapol { 
    transition: all 0.5s ease; 
    /* ensures the transform origin is calculated relative to the element’s bounding box */
    transform-box: fill-box;
    /* tells it to rotate around its own center. */
    transform-origin: center;
    }

    #pinapol:hover #Body-1 { 
        fill: red; 
    }

    #pinapol:hover #leaf { 
        fill: red; 
    }

    #pinapol:hover #Body-1 { 
        transform: rotate(30deg); 
    }

    #pinapol:hover #leaf { 
        transform: rotate(30deg);
    }
  </style>
</defs>
  <g id="Body-1">
    <path d="M156.02,109.95l.73,5.1c-1.44,5.57-1.8,11.05-1.1,16.46,2.24,1.22,3.03,2.7,2.37,4.44,4.51,3.64-.47,10.14-4.45,12.6-3.86,2.39-15.31,4.71-16.55-.6-2.83-1.07-1.97-4.89,1-5l1.39-2.13c4.73-.61,7.43-1.82,9.17-6.49,1.88-5.04-6.64-38.29-8.67-43.84-6-16.41-20.12-29.81-37.55-20.68l-2.34-.85c-1.76-1.18-2.12-3.63-1.1-7.34-1.36-2.16-1.99-4.05-1.9-5.66,35.96,3.07,45.42,25.35,59,54Z" style="fill: #feca73;"/>
    <path d="M97.02,55.95c5.85,3.92,3.55,6.86,3,13,4.54,1.84-.86,19.58-5,13-2.75,1.15-9.63-2.82-9-6-5.72,2.81-14.6-9.35-8-13-2.47-1.49-1.11-4.73,1-6,6.91-1.69,11.29-1.57,18-1Z" style="fill: #fda533;"/>
    <path d="M170.02,142.95c1.06,3.28,2.24,4.97,3,9l-1.26,6.28c-1.1,2.81-2.67,5.91-5.74,3.72-2.37.6-5.16-.11-8.36-2.12-.3,4.07-1.52,6.78-3.64,8.12-3.92,3.45-13.29,4.16-18,2-2.45.38-4.04-2.16-2-4-2.27-3.14,6.2-7.52,10-8l1.02-2.63c7.85-1.76,15.48-6.86,15.13-15.79l1.85-1.59c2.99-1.12,5.66.55,8,5Z" style="fill: #fdb65b;"/>
    <path d="M46.02,161.95c3.83-.36,6.95,2.95,9,6,3.63-2.6,13.8,7.32,8,10,1.35,4.56,1.01,7.56-1,9l-.12,2.99c1.85,4.04.94,11.08-3.88,7.01-6.3-9.98-10.96-20.19-16-31-.9-3.09-1.88-6.65,2-4,.39-1.96.91-1.54,2,0Z" style="fill: #e58440;"/>
    <path d="M43.02,90.95l.83,2.7c-15.24,23.74-12.95,43.45.69,67.07l-.52,1.23c-1.93.58-2.13,2.14-2,4-6.36-13.62-15.34-28.63-16-44,1.75-12.1,6.15-22.79,13.17-32.06l2.83.06c1.46-1.22,1.98-.67,1,1Z" style="fill: #d99660;"/>
    <path d="M166.02,190.95c-.42,3.82-3.69,6.3-6,9-9.01,7.24-18.86,13.62-29.94,17.21l-3.06-1.21c-3.87,2.32-9.29,5.51-13,2-2.85-2.22,10.1-9.78,11.8-10.39l2.2.39,1.67-1.37c1.94,1.74,3.71,1.53,5.33-.63l1.56-2.93c9.49-3.07,18.77-6.62,26.84-12.6l2.6.53Z" style="fill: #ce6561;"/>
    <path d="M170.02,142.95c-2.89-1.29-5.35-3.32-8-5-2.09,2.38-3.76,1.05-4-2-.95-.7-3.64-2.72-4.07-3.43-2.22-3.68.69-17.89,2.07-22.57,5.46,11.52,10.04,20.71,14,33Z" style="fill: #feae41;"/>
    <path d="M78.02,201.95c2.8,1.11,1.95,11.36-1,12,1.62.88,1.86,1.58,0,2-11.15-6.61-12.21-8.24-19-19,4.55-.06,2.55-4.77,2.96-7.58.18-1.24,1.03-2.29,1.04-2.42l2.14.51c1.67,5.85,6.32,12.1,12.79,12.56l1.07,1.93Z" style="fill: #ec8c70;"/>
    <path d="M168.02,188.95c-.43.65-1.37,1.48-2,2-2.96,2.45-10.99,7.1-14.64,8.86-2.65,1.27-15.93,5.38-16.36,6.14-2.58-2.26-2.16-8.46,1-10l1.84-2.03c7.66-.4,15.27-2.76,21.46-7.34l2.7.37c2.34-1.65,4.95-.56,6,2Z" style="fill: #dd7556;"/>
    <path d="M52.02,69.95c2.7-1.82,5.77-.04,4,3l1.33,1.87-7.92,16.71-2.41.42c-.96,2.67-4.14,1.89-4-1-.24-.14-.72-.7-1-1-5.75.83-3.77-6.49-2-10,2.04-2.43,8.94-10.18,12-10Z" style="fill: #d48428;"/>
    <path d="M42.02,89.95c-7.97,7.09-10.37,18.31-13.48,28.02-.51,1.58-.62,3.33-2.52,3.98-.65-15.13,4.35-30.53,14-42,.74,3.93-1.32,6.48,2,10Z" style="fill: #c88e51;"/>
    <path d="M173.02,170.95c-.29,2.27-.55,3.03-1,5l-1.26-.42c-.64,4.91-5.84,9.58-10.74,9.42-1.73,2.32-6.08-.42-6-3-3.59.42-4.25-4.43-1-6,1.93-2.52,5.1-4.36,9.5-5.52,2.53-2.43,5.03-3.93,7.5-4.48,3.28-3.62,3.63,2.05,3,5Z" style="fill: #f18d33;"/>
    <path d="M78.02,56.95c.31-.09.69.08,1,0,.99,2.19-.88,4.84-1,6-1.37,1.62-3.04,2.28-5,2l-6.11,7.53c-.82,2.54-2.11,4.03-3.89,4.47-2.09,1.62-7.99-1.18-7-4-.83-.48-1.96-2.88-4-3v-1c.34-3.06,6.19-5.4,9-4-1.17-2.16-.17-2.83,3-2,3.78-1.68,10.46-5.02,14-6Z" style="fill: #e6b356;"/>
    <path d="M160.02,199.95c-10.48,12.26-21.85,17.4-37,22-3.31.84-3.51-.46-1.98-3.31l5.98-2.69c11.57-2.91,22.41-10.84,33-16Z" style="fill: #c25a77;"/>
    <path d="M127.02,215.95c-1.15,2.43-4.83,2.64-5,5.48l1,.52c-10.42,3.16-13.94,3.64-25,2-2.57-1.1-2.58-1.89,0-3,2.54-4.13,12.02-5.63,16-3,4.32-.68,8.76-.93,13-2Z" style="fill: #d26278;"/>
    <path d="M99.02,215.95c2.96,1.75,1.61,3.69-1,5-.13.96.09,2.02,0,3-9.82-1.46-12.85-3.17-21-8,0-.67,0-1.33,0-2l2.25-1.34c5.65,1.89,11.68,3.24,17.58,1.88l2.17,1.46Z" style="fill: #de6d5c;"/>
    <path d="M172.02,175.95c-.91,3.99-1.62,9.41-4,13-2.25.1-4.16-.91-6-2-2.53,1.47-3.11.58-2-2,1.4-2.51,4.5-3.18,6.5-5,.44-.41,5.79-9.11,5.5-4Z" style="fill: #dc8038;"/>
    <path d="M173.02,170.95c1.07-4.84-1.76-3.94-3-5-2.28,2.14-5.22-1.51-4-4,4.87-1.83,3.47-7.58,7-10,1.37,7.24.91,11.94,0,19Z" style="fill: #eea051;"/>
    <path d="M138.02,142.95c-4-4.23-8.32-8.59-13.9-11.5l-.1-2.5,1.67-1.9c13.57,1.51,13.71-8.79,11.33-19.1l-1.78-1.7,1.42-13.91c-.91-1.9-1.46-3.7-1.64-5.39-1.97-9.28-14.37-19.22-23.8-14.24-6.09,3.22-16.75,21.18-16.37,28.72l-1.83,1.51c-1.96,1.9-2.34,1.73-2-1-4.05-1.69-.17-18.81,1.57-20.23l2.43.23c.49-.25,2.12.23,3.01-.45s1.77-10.13,1.99-12.55c6.33-4.3,10.17-4.93,17.85-3.35,20.8,4.28,25.68,30.37,29.86,48.14,2.95,12.54,8.67,28.04-9.72,29.22Z" style="fill: #fed480;"/>
    <path d="M124.02,128.95c4.93,3.55,14.43,8.09,14,14-.08,1.1-.82,3.03-1,5,2.98,1.26,2.32,9.56-1,10,4.12,1.47.13,5.61-3.14,5.7-1.5.04-17.67-10.74-18.59-12.28-1.62-2.72-2.68-7.12.73-8.43-.85-.78-1.5-1.62-1.68-2.81-.26-1.69,2.2-17.56,5.68-13.19,1.72-2.29,5.57-1.02,5,2Z" style="fill: #fea44f;"/>
    <path d="M162.02,137.95c1.01,7-2.53,12.56-8.31,16.19-3.16,1.99-7.25,2.45-9.69,3.81-4.28,2.38-6.95,2.38-8,0,.56-2.92.73-6.94,1-10,9.35,3.13,21.77-.38,21-12,1.1.81,2.81,1.24,4,2Z" style="fill: #fec271;"/>
    <path d="M78.02,62.95c-.9,8.88,1.17,8.37,8,13l1.09,2.17c-1.89,5.52-2.58,11.31-2.07,17.38l-2.02,1.45c-.65,1.38-1.98,1.72-4,1-.54,2.05-.8,2.01-2.44,1.59-3.29-.85-13.66-31.71-3.56-34.59,1.09-.73,2.1-3.2,4.45-2.97l.55.97Z" style="fill: #fdbb66;"/>
    <path d="M95.02,81.95c-2.44,1.24-4.64,16.62-4,20-1.77,1.78-3.44.78-5-3-1.93,2.16-3.75.68-3-2,.14-6.73-.61-15.13,3-21,2.98,2.02,6.39,3.45,9,6Z" style="fill: #fec374;"/>
    <path d="M77.02,111.95l1.96,1.38c.51,5.81,4.51,9.79,12,11.92,3.39,1.58,4.4,3.48,3.05,5.7l2.25.2c6.39,14.24,18.79,31.72,35.81,32.81l1.94,1.98c.03.73,2.24,2.54,2,4-.01,3.19-4.63,5.64-7,3-2.68,4.23-11.35,1.92-15.68.38-4.99-1.77-12.93-5.73-13.32-11.38l-1.89-1.59c2.38-4.59-16.09-13.37-16.84-12.52-.6.69-2.65,17.17-2.4,18.12l7.28,5.71-.15,2.28c2.18,2.13,3.78,4.71,1,7-.37,3.12-9.88,1.08-10-2-3.53-2.34-5.54-6.51-6.03-12.52-1.41-11.61-4.4-22.43-8.97-32.48-1.59-1.54-1.96-4.18-1.12-7.92l-10.09-6.84.21-2.24c-2.61-2.71-.08-11.2,3-13,2.49.41,5.2,1.42,8.12,3.04l13.94,2.43c1.08.2,1.03,1.36.94,2.53Z" style="fill: #fca36b;"/>
    <path d="M115.02,142.95c-.21,2.99-.58,5.69,1.47,8.04.67.77,16.18,10.75,17.19,10.85,2.64.25,2.07-2.45,2.35-3.88h8c-1.41.78-10.03,7.24-10,8-17.59.76-28.53-15.2-37.22-28.28-2.02-3.05-1.8-4.73-2.78-6.72,2.01-2.27,2.85-4.48,2.24-7.6l1.76-1.4c.28-.87.62-.86,1,0l2.25.64c3.03,6.61,7.46,12.72,12.91,17.54l.84,2.83Z" style="fill: #feb171;"/>
    <path d="M154.02,167.95c2.91,1.24,1.8,6.88-1,8-.15,2.07-.12,4.15,1,6,.36.29.69.6.88.98,1.58,3.09-17.92,6.13-20.88,2.02-2.01,2.23-8.52-2.09-8-5-.46-2.46.13-6.71,3-7,2.9-.41,4.94-2.58,7-3,5.82-1.18,12.07-1.44,18-2Z" style="fill: #fb9952;"/>
    <path d="M166.02,161.95c1.03.66,2.91,3.07,4,4-3.83,6.41-10.29,8.11-17,10,.15-2.1.67-5.81,1-8,1.7-11.17,1.3-12.85,12-6Z" style="fill: #fd9d35;"/>
    <path d="M77.02,178.95c3.8,1.18,1.95,8.59-.52,10.67-5.2,4.39-15.29-5.68-13.48-11.67-.38-.96.4-2.46-.93-4.55-.57-.88-5.61-4.41-7.07-5.45-3.88-3.04-15.75-24.74-12.58-28.05.65-.68,1.7-.46,2.58.05,2.32-.83,5.16.26,8.54,3.25,4.63,4.65,6.74,1.96,6.36-8.05l2.1-1.2c2.05.1,2.93.94,3.75,2.76,5.47,12.19,5.49,29.75,11.25,42.24Z" style="fill: #fba677;"/>
    <path d="M53.02,96.95c1.36-1.42,1.9-.83,1,1,2.31,1.55,3.35,5.03,0,6-.39,4.42-2.17,8.67-3,13-1.6,1.03-3.94.58-7.02-1.34l-2.05,19.53c2.29,1.55,3.31,3.15,3.07,4.81-1.8.94-1.02,3.53-.54,5.03,2.44,7.64,8.09,15.19,10.54,22.97-2.47-1.76-7.18-2.77-9-6-6.37-11.06-14.17-25.27-13.12-38.85.51-6.51,3.58-14.22,7.58-19.35,2.87-3.68,7.9-9.44,12.54-6.8Z" style="fill: #eea46f;"/>
    <path d="M77.02,178.95l10,2c3.82-.27,8.82,10.7,8.18,13.97-.63,3.21-2.06,4.33-5.18,3.03-2.23.92-5.05-.02-8.47-2.81-.29,3.6-1.47,5.87-3.53,6.81-7.56.97-14.88-8.12-16-15,.27-2.87-1-6.95,1-9,3.8,9.59,15.29,18.05,14,1Z" style="fill: #f99a74;"/>
    <path d="M47.02,91.95c2.63-1.86,6.65,2.09,6,5-9.1,2.36-14.94,12.75-17.3,21.2-4.65,16.61,4.57,28.95,10.3,43.8-.63.11-1.48-.16-2,0-4.07-10.83-12.81-23.7-13.03-35.55s6.61-25.33,12.03-35.45c.91.54,3.26.48,4,1Z" style="fill: #e29f60;"/>
    <path d="M137.02,189.95c2.92,1.75,2.16,5.24-1,6-.38,3.3-.41,6.71-1,10-.24.41.19,2.05-.48,2.98-1.64,2.28-4.51.05-6.52-.98-2.21,2.54-10.41-3.06-9-6-5.88,3.12-10.6-8.25-4-10,2.31-3.04,16.3-4.95,19.67-4.07,1.05.27,1.74,1.23,2.33,2.07Z" style="fill: #e67640;"/>
    <path d="M128.02,207.95c-3.12,4.8-10.43,5.45-14,10-5.34.84-10.8,1.43-16,3,.21-1.59.76-3.23,1-5-2.89-.74-1.96-5.94,1-6,5.93-2.25,11.55-5.13,16.87-8.64l2.13.64c2.48,1.86,6.34,4.63,9,6Z" style="fill: #e16f65;"/>
    <path d="M90.02,197.95c2.77-1.21,5.65-.51,5,3,4.05-2.86,10.11,7.42,5,9-.11,1.24-.75,4.12-1,6-7.36,2.41-15.01.45-22-2,.05-3.22.51-8.88,1-12,1.99-12.53,2.55-9.96,12-4Z" style="fill: #e9794d;"/>
    <path d="M160.02,184.95c.69.41,1.31,1.59,2,2-6.71,5.88-17.13,9.08-26,9,.23-2,1.15-3.64,1-6-2.08-.63-3.77-2.78-3-5,6.36.41,11.89-.15,18.06-1.48,1.04-.22,1.77-1.48,1.94-1.52,1.05-.25,4.7,2.23,6,3Z" style="fill: #ec8552;"/>
    <path d="M63.02,76.95l1.6,2.52c-.07,3.17-1.15,18.29-2.08,19.91-2.2,3.85-8.03,2.97-8.53-1.44-.33-.19-.61-.76-1-1-2.03-1.29-4.25-3.76-6-5l9-19c2.17,1.26,4.97,2.1,7,4Z" style="fill: #e9902d;"/>
    <path d="M73.02,64.95c-5.62,7.36-.48,22.55,3.16,30.39.68,1.48.53,3.11,2.84,2.61,2.61,1.47,2.17,15.55-2,14-7.41-3.49-17.62-.29-23-8,.17-1.97-.12-4.02,0-6,1.91,1.08,5.93,3.4,6.84.34.97-6.73.9-14.81,2.16-21.34s4.98-8.65,10-12Z" style="fill: #fbb063;"/>
    <path d="M135.02,86.95c-2.11,1.96-3.79.77-3-2-9.55-13.14-18.36-13.17-25.69,1.84-4.16,8.53-2.93,12.84,7.71,12.95l1.97,1.21,1.82-.98,16.54,10.94c.41-1.54,1.29-2.52,2.64-2.95,2.22.96,2.65,4.55,2.88,6.61,1.3,11.95-4.58,15.29-15.88,14.39-.94-.68-4.18-1.35-5-2l-2.94.18c-4.17-2.07-14.76-12.55-16.06-17.18-2.41,1.75-7.83-4.37-7-7-.79-5.36.58-8.2,2.83-12.67,2.39-4.72,9.95-17.57,14.59-19.41,9.62-3.8,25.45,5.04,24.58,16.07Z" style="fill: #fed489;"/>
    <path d="M132.02,84.95c.95.68,2.36,1.47,3,2,.84.7,2.62,1.83,3.04,2.43,1.64,2.33-.54,14.61-1.04,18.57-.28,2.18.54,5.82-3.29,4.83-1.03-.27-17.33-10.83-17.71-11.83-.48.02-.94,0-1.37-.15-1.4-.49,1.08-22.25,3.07-23.7,3.76-2.72,12.82,3.64,14.3,7.85Z" style="fill: #febb57;"/>
    <path d="M91.02,101.95c.72.48,1.58.71,2,1,3.63,2.53,5.08,5.27,7,7,2.01,2.93,1.76,9.94-1,12h-1l-2.17.13c-2.28-2.62-7.89-10.27-9.25-13.28-1.22-2.7-3.37-8.13-.58-9.85,1.54.86,3.56,2.04,5,3Z" style="fill: #fea34f;"/>
    <path d="M119.02,126.95c-2.47.71-1.73,2.73-2.02,4.48-.59,3.49-1.75,8.29-1.98,11.52-5-1.92-15.25-16.42-16-21-.63-3.83.4-8.21,1-12,5.6,5.04,13.01,12.22,19,17Z" style="fill: #febf7f;"/>
    <path d="M83.02,96.95c.95.38,2.01,1.44,3,2,.79,2.79.94,5.68,2.1,8.4,1.45,3.39,9.51,13.07,9.9,14.6.79,3.13.72,10.23-4,9-3.67-7.51-17.92-4.75-17-19,.01-.17.83-.78.91-1.61.33-3.51.37-9.24,1.09-12.39.2-.86.81-1.55,1.6-1.94.83-.19,1.7.66,2.4.94Z" style="fill: #fc963f;"/>
    <path d="M129.02,172.95c-.92,2.55-.19,5.74-3,7-2.21.8-4.9.29-8.06-1.54l-.84,10.36-2.1,1.18-1.06,2.18c-6.39,1.63-11.86,4.58-16.4,8.85l-2.54-.03c-.83-.62-3.61-2.13-5-3,8.15-2.61-1.39-12.6-3-17-.66-1.81-.8-4.98-1-7l1.69-1.31,7.7,3.86,2.41-13.54,2.21-1.02c7.67,8.14,17.55,12.61,29,11Z" style="fill: #fa9465;"/>
    <path d="M100.02,161.95l-2.95,16.57c-1.75,1.27-9-3.29-11.05-4.57s-8.68-5.67-9.03-7.51,2.12-20.43,2.97-21.06c2.05-1.5,17.6,8.33,19.05,10.07s1.17,4.31,1.01,6.5Z" style="fill: #f58b3f;"/>
    <path d="M51.02,116.95c1.48.9,11.14,7.41,11.51,8.01,1.17,1.91-.27,6.33-.51,8.99s-.79,13.42-2.6,13.95c-2,.59-12.15-6.27-14.4-7.95-1.98-1.49-4.58-2.19-5.03-4.51-.29-1.49,1.63-18.9,2.19-20.82.91-3.1,6.56.95,8.83,2.33Z" style="fill: #ed8e48;"/>
    <path d="M126.02,179.95c2.09,1.24,6.29,3.72,8,5,2.4,1.79,2.8,1.9,3,5-7.41-.45-14.67,1.31-22,2-2.01-.23-1.94-1.23,0-2,1.06-12.37-1.49-17.42,11-10Z" style="fill: #f38441;"/>
    <path d="M115.02,189.95c-.06.66.04,1.34,0,2-.11,1.69-1.84,3.43-.85,6.33.5,1.48,3.48,2.65,4.85,3.67-2.69,3.24-9,5.84-13.02,7.47-1.55.63-4.69,2.53-5.98.53.42-4.92-1.26-6.21-5-9,4.59-6.27,12.82-9.06,20-11Z" style="fill: #ec7c67;"/>
    <path d="M132.02,84.95c-2.09-1.51-11.27-7.83-13.05-6.55-.92.67-3.37,21.49-2.95,22.55-4.09,2.96-13.3-1.11-14.01-5.55-.95-5.93,8.35-22.18,15.5-22.28,5.62-.08,14.77,5.37,14.52,11.84Z" style="fill: #fee49a;"/>
  </g>
  <g id="leaf">
    <path d="M93.02,15.95c1.18,17.09-3.1,28.81-15,41-.73,2.94-9.04,6.51-12.21,7.39l-1.79-1.39c-2.74,1.54-8.22-1.79-6-5-1.58-4.67,6.85-10.91,8.92-3.61.78.07,10.95-7.63,12.08-9.39l-.28-3.28c4.6-9.12,8.89-18.35,12.49-27.59,1.03.16,1.61.81,1.8,1.88Z" style="fill: #a1cb1d;"/>
    <path d="M93.02,15.95c-2.77-.59-1.87,1.44-2.47,2.98-3.52,9.15-6.03,17.81-11.53,26.02-11.2,13.56-11.59-4.54-7.95-12.96l5.95-14.04c-2.08-2.23,1.38-6.46,4-5l1.9,1.3c.41,5.45,2.08,11.45,4.27,2.32l1.49-10.83,2.34-.79c1.04,3.35,1.76,7.48,2,11Z" style="fill: #a4cf40;"/>
    <path d="M39.02,3.95c1.64,1.96,1.98,3.63,1,5,1.18,6.99,3.18,13.74,5.7,20.36l-1.7,1.64c1.83,4.22,3.41,13.54-3,13-.72.76-2.55.03-3-1-3.68-.84-5.68-2.18-6-4l4.99,1c-5.02-12.34-4.34-24.14-1.99-37,1.96-.69,2.85.57,3.99,1Z" style="fill: #94bf2f;"/>
    <path d="M88.02.95c3.54,3.13-3.12,12.98-7,12-1.06,1.48-2.83,3.23-4,5l-5.67,13.92c-1.11,1.98-7.02,8.62-9.33,7.08-2.82-.29-2.6-1.65-1.62-3.92-1.05-6.4.15-8.76,3.62-7.08,1.32-2.59,2.12-5.93,3.81-8.69,3.55-5.82,13.82-16.15,20.19-18.31Z" style="fill: #8fc31f;"/>
    <path d="M15.02,52.95c5.08.75,10.25,2.83,15.49,6.23l8.83,3.65.67,2.13c1.39,2.28,3.98,2.97,7.77,2.07l1.23,1.93c-10.88,3.24-25.81-2.26-34.48-9.02C11.84,57.82-.52,44.54.02,41.95c1.16-.44,2.77-.72,3.93-.31,2.69.93,11.69,8.19,11.07,11.31Z" style="fill: #98b343;"/>
    <path d="M32.02,38.95c.71.3,4.62,3.37,6,4-2.67.14-5.5-.12-8.49-.78-1.76-1.3-9.71,1.96-10.03,2.54,2.44,8.48.95,11.23-4.48,8.24C10.02,49.33,5.92,44.21.02,41.95c.47-2.24,18.67-4.99,21.55-5.04,3.21-.05,7.48.78,10.45,2.04Z" style="fill: #9fc32c;"/>
    <path d="M60.02,21.95c1.35,2,2.44,4.17,4,6-1.39,2.71-2.89.84-2.99,1-1.12,1.81.9,7.85.99,10,2.87.89,2.88,3.12,0,4-.56.86-1.36,2.07-2.17,1.96-10.7-1.5-19.31-25.64-18.83-34.96,1.13-1.98,2.26-1.26,3.44.41l9.1,16.51c4.16,9.39,5.47,8.18,3.91-3.62l2.55-1.3Z" style="fill: #a1cd48;"/>
    <path d="M91.02,4.95c-1.78,4.8-.71,9.71-2.7,14.8-3.84,9.81-8.12-1.21-7.3-6.8,2.74-3.84,6.53-6.82,7-12,.14-.05.22-.98.48-.95,1.8,1.13,1.95,3.14,2.52,4.95Z" style="fill: #b3e062;"/>
    <path d="M61.02,64.95c-2.92,1.29-5.83,3.48-9,4-.89.15-2.02-.05-3,0-3.78.18-12.35,1.19-9-4,2.86-5.13,20.45-6.82,21,0Z" style="fill: #9dbd21;"/>
    <path d="M38.02,42.95c.89.21,1.91,1.01,3,1,.87.28.86.62,0,1l-1.7,1.59c-.83-.18-12.32-2.41-12.31-1.79.02,1.85,24.92,11.9,29.01,12.2,1.34-2.29,2.25-1.64,2,1,1.72,1.5,2.85,5.02,6,5-.69.31-1.68,1.41-3,2-2.1-3.29-9.88-2.18-13.39-1.9-2.41.19-5.53,1.94-7.61,1.9-3.78-.09-21.37-9.37-25-12,8.36,2.07-.5-7.69,3.65-10.09,5.11-2.95,13.85-1.19,19.35.09Z" style="fill: #a3c73d;"/>
    <path d="M79.02,44.95c-.41.61-.38,1.74-1.43,3.03-3.15,3.85-7.93,6.09-11.09,9.96l-2.99-5.97-5.5,5.98c-.48-.42-1.55-.58-2-1-3.46-.57-6.8-2.81-10.03-6.75-2.88-1.35-4.54-3.1-4.97-5.25v-1c3.32-2.52,3.32-9.17,3-13,1.99-.74,3.4.43,4.23,3.5.91,6.04,7.33,22.7,11.66,9.36l2.1-.86c.09-1.28.06-2.71,0-4l8.44-9.06c2.14-4.07,4.02-8.09,6.56-11.94-.49,5.08-9.24,26.54-5.07,29.57,2.63,1.91,5.12-1.21,7.07-2.57Z" style="fill: #9cc72d;"/>
    <path d="M41.02,9.95c2.2,7.74,3.52,13.85,7.58,20.92,2.67,4.65,7.33,12.99,13.42,12.08-.63,8.78-7.71,11.01-12.21,2.71-2.36-4.37-2.37-10.77-5.79-14.71-.59-6.95-5.44-14.38-4-22,.19.27.68.52,1,1Z" style="fill: #a3c73d;"/>
    <path d="M41.02,44.95c6.08,2.3,10.45,7.76,15,12-.89,2.59-1.72,1.46-3.46,1.04-5.42-1.32-22.05-7.72-26.04-11.04-1.23-1.02-2.8-2.16-2.5-3.99,1.21-1.05,14.6,1.09,16.99,1.99Z" style="fill: #bada5f;"/>
    <path d="M60.02,21.95c-2.55,5.17,2.07,10.88-1.5,14.98-2.74-.04-13.41-21.87-15.66-25.38-.62-.97-1.68-1.36-1.84-1.6-.55.8-.89.46-1-1-1.01-1.41-3.39-4-1-5,8.19,3.1,16.26,10.95,21,18Z" style="fill: #b2da5d;"/>
    <path d="M57.01,25.95c-2.13,2.2-10.34-8.85-10.8-10.71-1.73-6.87,8.17.43,9.68,3.34,1.3,2.5,1.31,4.65,1.12,7.37Z" style="fill: #c2e974;"/>
  </g>
</svg>