<?xml version="1.0" encoding="UTF-8"?>
<svg id="Strobery" xmlns="http://www.w3.org/2000/svg" viewBox="0 0 158.16 223.06">

<defs>
 <style>
    #st_main { 
    transition: all 0.5s ease; 
    /* ensures the transform origin is calculated relative to the element’s bounding box */
    transform-box: fill-box;
    /* tells it to rotate around its own center. */
    transform-origin: center;
    }
#leef { 
    transition: all 0.5s ease; 
    /* ensures the transform origin is calculated relative to the element’s bounding box */
    transform-box: fill-box;
    /* tells it to rotate around its own center. */
    transform-origin: center;
    }
    #Strobery:hover #st_main { 
        transform: rotate(360deg); 
    }

    #Strobery:hover #leef { 
        transform: rotate(360deg);
    }
  </style>
</defs>
  <g id="st_main">
    <g id="body-2" data-name="body">
      <g id="body-3" data-name="body">
        <g id="body_1" data-name="body 1">
          <path d="M34,109.02c6.77-3.22,7.23-3.23,16-5,.97,1.54,1.09,3.23,1,5-.11,2.13-.99,2.95-.6,6.02.67,5.28,3.82,8.27,5.6,12.98-.24-.1-.65.05-1,0-9.21-1.39-7.13,5.83-9,12-1.46,1.69-3.33-.03-4,0-1.5-15.01-5.08-21.36-21.48-18.98l-10.59,8.66c-.67,3.23,4.16,11.9,7.07,13.31l-1.67,11.37,2.67,9.63c-8.57-11.7-14.49-22.34-17-37l.98-.5-.98-.5c-.09-.64.07-1.35,0-2l5.5-11c4.15-.06,6.49-4.59,8.52-5.49,2.82-1.26,4.84,1,5.98-3.51.45,3.18,2.45,5.94,5.47,7.09,4.32,1.64,4.4-.6,7.53-2.09Z" style="fill: #bb3d51;"/>
          <path d="M147,74.02c1.61,3.92,6.28,10.17,7,14-5.01.93-4.06-7.27-8.52-8.05-6.48-1.13-25.67,5.37-30.32,10.7-5.74,6.57-5.96,17.65,3.84,19.35,2.46-4.05-.97-15.69,1.26-17.8.48-.45,1.59-.06,1.75-.2.44,5.34-1.98,16.74,4.03,19.49,1.96.9,3.72.16,4.97.51.15.04.53,1.88,2.4,1.95,5.56.2,19.18-8.31,20.39-13.65.53-2.34.33-5.8.21-8.29,2.76-.59,1.94,1.36,2.31,3.14,1.68,7.92,2.14,15.76,1.69,23.86-7.78-3.26-14.68,2.09-22.63,2.87-13.36,1.31-29.2-.43-31.42-16.32-1.53-10.97,2.72-16.85,11.12-22.98,5.53-4.04,10.22-6.26,16.93-6.57,3.65-.17,7.36.13,11.01,0v-2c1.3-.07,2.74.17,3.99,0Z" style="fill: #f96d82;"/>
          <path d="M111,147.02c.03.12,1.43.43,1.78,1.68,1.6,5.84,1.81,14.4,9.84,15.25,3.97.42,15.25-2.89,18.58-4.97,1.91-1.19,3.81-5.99,6.8-6.96-3.07,5.82-5.37,8.18-9,13-2.18,2.19-6.69,3.59-8.69,5.31-14.87,12.83-26.64,36.24-42.31,46.69,1.28-17.66,9.63-33.34,20.85-46.73l-2.85-19.27v-1c2.05-.49,3.08-.86,4-3h1Z" style="fill: #fe3463;"/>
          <path d="M132,76.02c-6.71.31-11.4,2.53-16.93,6.57-8.39,6.13-12.64,12.01-11.12,22.98,2.21,15.9,18.06,17.63,31.42,16.32,7.95-.78,14.85-6.13,22.63-2.87-.04.66.05,1.34,0,2l-1,2c-.32,2.73-.4,4.17-1,7l-2.56,3.07c-2.12-.8-3.52-1.84-5.92-2.1-3.23-.36-5.57,1.04-7.02,1.04h-19c-4.15,0-7.4-2.36-10.5-3,.9-5.55-4.88-7.94-7.54-10.96-3.23-3.67-3.34-4.82-7.46-8.04,2.04-2.53-.99-3.73-.98-6.36,0-3.65,4.1-12.64,6.16-15.96,2.9-4.67,7.66-7.76,9.82-12.68,6.63-.19,14.7-.7,21,1Z" style="fill: #fd536a;"/>
          <path d="M112,135.02c12.37,1.15,24.1,2.65,36.41.04,3.15.23,4.42,1.9,4.59,4.96.02.32.03.68,0,1-3.11-.62-2.9,3.69-3,6-.71,1.67-1.05,3.2-2,5-2.98.97-4.89,5.77-6.8,6.96-3.33,2.08-14.61,5.39-18.58,4.97-8.04-.85-8.25-9.41-9.84-15.25-.34-1.25-1.74-1.57-1.78-1.68-.14-.52.07-1.35,0-2,1.51-.7.96-2.69,1-4,.05-1.59.15-3.47,0-5-.03-.33.04-.67,0-1Z" style="fill: #fe3159;"/>
          <path d="M122,92.02c-.16.14-1.27-.25-1.75.2-2.23,2.11,1.19,13.75-1.26,17.8-9.8-1.7-9.57-12.78-3.84-19.35,4.65-5.33,23.84-11.83,30.32-10.7,4.46.78,3.52,8.98,8.52,8.05.21,1.13-.06,2.73,0,4,.12,2.49.32,5.95-.21,8.29-1.21,5.34-14.83,13.85-20.39,13.65-1.87-.07-2.25-1.9-2.4-1.95v-1c7.81-.66,7.42-17.27,3.74-20.75-.9-.85-2.54-.95-3.74-1.25-5.61-1.39-4.97-.57-9,3Z" style="fill: #fd768a;"/>
          <path d="M52,151.02c.83,5.06-3.1,8.95-6.53,11.97-5.86,5.15-13.94,5.39-9.33,15.39.31.66,6.7,8.27,7.28,8.68,2.02,1.41,5.62,1.47,7.84,3.93,1.55,1.72,1.58,5.07,4.74,6.03,1.98,5.93,6.33,9.93,9.51,15.06-.8,3.8.28,3.06,1.49,5.94h-1c-8.62-5.96-22.48-22.98-29-32-.07-.09.98-.79-.05-2.28-2.3-3.3-13.55-15.95-13.02-19.16,2.64-.61,3.58-3.9,4.75-4.63,1.32-.82,3.6-.68,5.21-1.54,5.34-2.86,10.73-5.62,16.1-8.39.09.07,1.89.98,2,1Z" style="fill: #de3261;"/>
          <path d="M42,140.02c.67-.03,2.54,1.69,4,0,.13,1.28-.19,2.77,0,4,.07.47.52.89,1,1,.34.62.48,1.22,1,2s1.54,2.66,2,3c-5.38,2.77-10.76,5.53-16.1,8.39-1.61.86-3.89.73-5.21,1.54-1.17.72-2.11,4.02-4.75,4.63-.54,3.21,10.72,15.87,13.02,19.16,1.04,1.49-.01,2.18.05,2.28-7.04-6.66-13.29-14.19-19-22l-2.67-9.63,1.67-11.37c.8.39,8.79,2.99,9.4,2.96,5.7-.21,10.06-5.71,15.6-5.96Z" style="fill: #d73a61;"/>
          <path d="M49,74.02c-4.09,1.69-11.53,3.55-13.53,8.04-1.08,2.41,1.04,4.97,1.45,7.57.29,1.86.95,3.96-1.92,3.39-.05-.31-.85-.68-1-1-3.27-7.13-11.79-3.13-13,2v-2c-4.68-.13-9.49.6-14-1,.03-.2-.89-1.32-.69-2.31.43-2.17,2.86-5.34.69-6.69,1.11-2.54,2.13-5.35,3-8,10.69.9,28.22.76,39,0Z" style="fill: #8b1c32;"/>
          <path d="M7,91.02c-.03.19-1.27.93-1.4,1.85-1.81,12.88,8.3.87,15.4,3.15-.23,2.01-.27,6.05,0,8-1.14,4.51-3.16,2.24-5.98,3.51-2.02.91-4.36,5.43-8.52,5.49l-5.5,11c-2.02-18.51-1.42-24.99,6-42,2.17,1.35-.26,4.51-.69,6.69-.2.99.72,2.12.69,2.31Z" style="fill: #aa3d4d;"/>
          <path d="M66,218.02h1c4.34,2.61,8.95,3.51,14,3s4.16-2.1,7-4c15.67-10.44,27.43-33.85,42.31-46.69,2-1.72,6.51-3.12,8.69-5.31-2.21,2.94-4.14,6.14-6.49,9.01-8.8,10.79-28.7,35.59-38.6,43.4-9.54,7.52-18.21,7.3-27.91.59Z" style="fill: #fb4278;"/>
          <path d="M111,129.02c3.1.64,6.35,3,10.5,3h19c1.46,0,3.8-1.39,7.02-1.04,2.39.27,3.8,1.3,5.92,2.1l2.56-3.07c-.68,3.2-.5,7.24-3,10-.17-3.06-1.44-4.73-4.59-4.96-12.3,2.61-24.04,1.11-36.41-.04-.3-2.16-1.71-3.85-2-6,.32.07.68-.07,1,0Z" style="fill: #fe3463;"/>
          <path d="M153,141.02c-.35,3.2-2.2,4.11-3,6,.1-2.31-.11-6.62,3-6Z" style="fill: #fe3463;"/>
          <path d="M157,123.02l1-2c-.14,1.75-.99,1.89-1,2Z" style="fill: #f96d82;"/>
          <path d="M1,127.02c-.06-.32.05-.67,0-1l.98.5-.98.5Z" style="fill: #aa3d4d;"/>
          <path d="M88,70.02c-.59-.18-5.11-1.32-6.76-1.73-12.62-3.11-16.9,9.65-22.82,17.65-1.86,2.52-6.27,5.87-7.41,8.6-.59,1.42,0,1.52,1.3,1.26,5.83-1.17,8.09,4.15,14.69,4.22.05.32,1.8,5.78,2.01,6.01.27.29.64-2.09,2.99.99.72.94,1.27,2.05,2,3-.38-.03-1.23,1.25-2.93.51-4.36-1.91-5.13-7.6-8.77-8.28-2.83.15-8.39-.22-10.88.2-1.13.19-1.3,1.55-1.43,1.57-8.77,1.77-9.23,1.78-16,5-.02-1.13.63-2.01,1-3,.19-.51,1.68-.81,0-2,0-3.26.49-8.08,0-11,2.87.57,2.21-1.53,1.92-3.39-.41-2.6-2.53-5.16-1.45-7.57,2.01-4.49,9.45-6.35,13.53-8.04,3.5-.25,10.57-.68,12.23-3.71l1.74.69c.22-.59-.16-1.72.03-1.98.83-1.17,2.72-2.28,4-3,2.19-1.23,4.21-.99,7-4l14,8Z" style="fill: #a8193e;"/>
          <path d="M17,143.02c-2.91-1.42-7.73-10.09-7.07-13.31l10.59-8.66c16.4-2.38,19.98,3.97,21.48,18.98-5.54.26-9.9,5.76-15.6,5.96-.61.02-8.6-2.58-9.4-2.96Z" style="fill: #d0495d;"/>
          <path d="M51,109.02c5.64.9,7.97,4.37,14.36,2.98l.65,2.01,1-2.99,1.07,1.88c2.58-1.18,5.19-.91,7.92-.89,1,0,2,0,3,0-2.78,4.44-2.61,3.7-5.65,7.35-7.88,9.46-5.72,19.47-12.35,26.65-.61-6.69,2.47-15.04-5-18-1.77-4.72-4.93-7.71-5.6-12.98-.39-3.07.49-3.89.6-6.02Z" style="fill: #d01f5a;"/>
          <path d="M34,92.02l-3.06.44-.78,1.21.85,11.34c3.86,2.79,3.1-11.21,2.99-13,.15.32.95.69,1,1,.49,2.92,0,7.74,0,11v2c-.37.99-1.02,1.87-1,3-3.13,1.49-3.2,3.72-7.53,2.09-3.03-1.15-5.03-3.91-5.47-7.09-.27-1.95-.23-5.99,0-8,.07-.65-.13-1.44,0-2,1.21-5.13,9.73-9.13,13-2Z" style="fill: #452552;"/>
          <path d="M50,104.02c.13-.03.3-1.38,1.43-1.57,2.48-.42,8.04-.05,10.88-.2,3.64.68,4.41,6.37,8.77,8.28,1.7.75,2.55-.54,2.93-.51.95.08,1.68,1.14,2,2-2.72-.02-5.34-.29-7.92.89l-1.07-1.88-1,2.99-.65-2.01c-6.39,1.39-8.72-2.07-14.36-2.98.09-1.77-.03-3.46-1-5Z" style="fill: #b91645;"/>
          <path d="M55,128.02c-3.77,4.41-4.23,10.04-5.04,15.51-.28,1.87,1.25,4.05-1.96,3.49-.52-.78-.66-1.38-1-2-.22-.4-.65-.71-1-1-.19-1.23.13-2.72,0-4,1.87-6.17-.21-13.39,9-12Z" style="fill: #452552;"/>
          <path d="M131,89.02c-1.36.74-2.05,1.63-2.4,3.17s.08,15.51.44,17.09c.18.82,1.34,1.25,1.96,1.74v1c-1.25-.35-3.01.38-4.97-.51-6.01-2.75-3.59-14.14-4.03-19.49,4.03-3.57,3.39-4.39,9-3Z" style="fill: #452552;"/>
          <path d="M143,74.02v2c-3.64.13-7.35-.17-11,0-6.3-1.7-14.37-1.19-21-1-3.03.09-6.75-.42-9.56-.05-7.28.96-11.52,15.74-15.44,21.05-.11-1.22-.44-4.16-1-5l5.52-11.01,6.48-5.02c.22-1.02-1.22-1.53-2-1.98l3-1c10.73,3.35,33.17,2.62,45,2Z" style="fill: #bb3d51;"/>
          <path d="M102,150.02l.5.98.5-.98c.62-.11,1.37.09,2,0l1,1,2.85,19.27c-11.22,13.39-19.56,29.07-20.85,46.73-2.84,1.9-1.9,3.48-7,4-.07-2.93-3.29-2.88-4.87-5.64-1.74-3.03-3.51-18.16-3.19-21.86.31-3.44,2.43-4.51,3.05-7.5,4.72,1.16,8.53-1.87,10-6,.09-.26.88-.4,0-1,.1-3.32-.15-6.69,0-10,0-.18.96-.79,1.01-1.61.24-3.6-3.85-6.04-7.01-6.39-1.43-11.65,11.08-6.52,16.36-8.05,1.06-.31.52-1.88.64-1.95.14-.07,2.66-.91,3-1,.56-.14,1.37.1,2,0Z" style="fill: #fa2766;"/>
          <path d="M106,128.02c-1.63,5.6.2,14.62,4,19-.92,2.14-1.95,2.51-4,3-.3.07-.66-.05-1,0-.63.09-1.38-.11-2,0-.32.06-.67-.05-1,0-.63.1-1.44-.14-2,0-4.8-5.07-2.48-11.74-3-18-.03-.33.05-.68,0-1,1.05.16,1.38-.38,2-1,.16-.16-.16-.91,0-1,.24-.13.69.12,1,0,1.81-.69,4.04-1.05,6-1Z" style="fill: #452552;"/>
          <path d="M109,129.02l-1.99,5.45c1.08,1.79,3.15,1.7,4.99,1.55.15,1.53.05,3.41,0,5-1.37.63-1.13,2.76-1,4,.07.65-.14,1.48,0,2h-1c-3.8-4.38-5.63-13.4-4-19,.4.01,2,.81,3,1Z" style="fill: #4c2a60;"/>
          <path d="M106,151.02l-1-1c.34-.05.7.07,1,0v1Z" style="fill: #d01f5a;"/>
          <path d="M111,75.02c-2.16,4.91-6.93,8-9.82,12.68-2.06,3.32-6.15,12.31-6.16,15.96,0,2.63,3.02,3.83.98,6.36-.2-.16-.76.15-1,0-.59-.39,1.65-1.03-2-2-1.17-.31-1.93-.03-2.69-.28-.23-.07-.8-2.84-3.31-1.72l-1-2c.2-2.29.21-5.72,0-8,3.93-5.32,8.17-20.09,15.44-21.05,2.8-.37,6.53.14,9.56.05Z" style="fill: #d73a61;"/>
          <path d="M87,106.02c2.51-1.12,3.08,1.64,3.31,1.72.76.25,1.52-.03,2.69.28v2s2,0,2,0c.24.15.8-.16,1,0,4.12,3.22,4.23,4.37,7.46,8.04,2.66,3.02,8.44,5.41,7.54,10.96-.32-.07-.68.07-1,0s-.68.06-1,0c-1-.19-2.6-.99-3-1-1.96-.05-4.19.31-6,1l-.5-.98-.5.98c-.16.09.16.84,0,1h-2c-.39-1.29-6.25-11.36-7.25-11.7-1.63-.56-3.11-.32-4.76-.3.9-2.4-1.19-6.39-.99-8.01.09-.72,1.86-2.08,2-4h1Z" style="fill: #de3261;"/>
          <path d="M112,135.02c.04.33-.03.67,0,1-1.85.15-3.92.24-4.99-1.55l1.99-5.45c.32.06.68-.07,1,0,.29,2.15,1.7,3.84,2,6Z" style="fill: #aa3d4d;"/>
          <path d="M111,145.02c-.13-1.24-.37-3.37,1-4-.04,1.31.51,3.3-1,4Z" style="fill: #aa3d4d;"/>
          <path d="M131,89.02c1.2.3,2.84.39,3.74,1.25,3.68,3.49,4.07,20.1-3.74,20.75-.62-.49-1.78-.93-1.96-1.74-.35-1.58-.79-15.52-.44-17.09s1.03-2.43,2.4-3.17Z" style="fill: #4c2a60;"/>
          <path d="M84,110.02c-.2,1.62,1.9,5.6.99,8.01,1.65-.03,3.13-.26,4.76.3.99.34,6.86,10.4,7.25,11.7.08.28-.06.66,0,1,.05.32-.03.67,0,1-2.71-.45-3.98,1.7-6,3-.13-.74-2.75-5.69-3.64-5.95-1.51-.43-3.56,1.17-4.71,2.11-2.2,1.79-17.74,21.66-18.87,24.13-3.93,8.58-.45,19.32,7.76,10.76,3.22-3.36.17-5.98,8.45-5.05,3.16.35,7.25,2.79,7.01,6.39-.05.82-1,1.43-1.01,1.61-1.65-2.18-3.1-3.75-6-4-6.74-.59-7.55,2.52-8,8-.08.97-.04,2.02,0,3,.05,1.49-.3,3.81,0,5,.1.4,2.64,3.73,3,4-2.7.92-6.91,2.89-9.62,2.95-2.57.06-4.84-2.53-6.4-1.53-2.8,3.11-2.27,6.89-2.98,10.58-3.16-.96-3.19-4.32-4.74-6.03-2.22-2.46-5.81-2.52-7.84-3.93-.58-.4-6.98-8.01-7.28-8.68-4.61-10,3.47-10.24,9.33-15.39,3.44-3.02,7.36-6.91,6.53-11.97,4.17.62,6.5-2.29,9-5,6.63-7.17,4.48-17.19,12.35-26.65,3.04-3.65,2.86-2.91,5.65-7.35.26-.42,3.32-1.03,4-2h1Z" style="fill: #e22462;"/>
          <path d="M76,186.02c-.62,2.99-2.75,4.06-3.05,7.5-.33,3.7,1.45,18.83,3.19,21.86,1.58,2.76,4.8,2.71,4.87,5.64-5.05.51-9.66-.39-14-3-1.21-2.88-2.29-2.14-1.49-5.94-3.18-5.12-7.53-9.13-9.51-15.06.7-3.69.18-7.47,2.98-10.58,1.56-1,3.83,1.59,6.4,1.53,2.72-.06,6.93-2.03,9.62-2.95.44.33.93.98,1,1Z" style="fill: #e92468;"/>
          <path d="M56,128.02c7.47,2.96,4.39,11.31,5,18-2.5,2.71-4.83,5.62-9,5-.11-.02-1.91-.93-2-1-.46-.34-1.5-2.25-2-3,3.22.56,1.69-1.62,1.96-3.49.81-5.48,1.27-11.1,5.04-15.51.35.05.76-.1,1,0Z" style="fill: #4c2a60;"/>
          <path d="M47,145.02c-.48-.11-.93-.53-1-1,.35.29.78.6,1,1Z" style="fill: #bb3d51;"/>
          <path d="M7,91.02c4.51,1.6,9.32.87,14.01,1v2c-.14.56.07,1.35,0,2-7.11-2.28-17.21,9.73-15.4-3.15.13-.92,1.37-1.65,1.4-1.85Z" style="fill: #a8193e;"/>
          <path d="M88,70.02c1.96.6,5.25,1.99,7,3,.77.44,2.22.96,2,1.98l-6.48,5.02-5.52,11.01c-.35-.53-3.99-2.73-4.78-2.87-1.53-.27-1.93.81-2.22.87-2.79.56-2.82.92-5,2-.41.2-1.63-.23-2.32.19-2.76,1.67-4.2,5.66-3.68,8.81-6.6-.07-8.86-5.39-14.69-4.22-1.3.26-1.89.15-1.3-1.26,1.14-2.73,5.54-6.08,7.41-8.6,5.92-8,10.19-20.76,22.82-17.65,1.65.41,6.17,1.55,6.76,1.73Z" style="fill: #b91645;"/>
          <path d="M78,89.02c3.98-.65.87,5.38.92,7.5.11,4.64,1.49,9.71,4.08,13.5-.68.97-3.74,1.58-4,2-1,0-2,0-3,0-.32-.86-1.05-1.92-2-2-.73-.95-1.28-2.06-2-3,.42-5.24-1.06-11.12,1-16,2.18-1.08,2.21-1.44,5-2Z" style="fill: #452552;"/>
          <path d="M73,91.02c-2.06,4.88-.58,10.76-1,16-2.35-3.08-2.72-.7-2.99-.99-.22-.23-1.96-5.69-2.01-6.01-.52-3.15.92-7.14,3.68-8.81.69-.42,1.9.02,2.32-.19Z" style="fill: #8b1c32;"/>
          <path d="M35,106.02v-2c1.68,1.19.19,1.49,0,2Z" style="fill: #8b1c32;"/>
          <path d="M34,92.02c.11,1.79.87,15.79-2.99,13l-.85-11.34.78-1.21,3.06-.44Z" style="fill: #4c2a60;"/>
          <path d="M85,91.02c.56.84.89,3.78,1,5,.21,2.28.2,5.71,0,8-.06.66.05,1.34,0,2-.14,1.92-1.91,3.28-2,4h-1c-2.6-3.79-3.98-8.86-4.08-13.5-.05-2.12,3.06-8.14-.92-7.5.29-.06.68-1.14,2.22-.87.8.14,4.43,2.34,4.78,2.87Z" style="fill: #4c2a60;"/>
          <path d="M91,135.02c.87,4.85-2.24,15.45,6,16-.12.06.42,1.64-.64,1.95-5.29,1.53-17.8-3.59-16.36,8.05-8.28-.93-5.23,1.69-8.45,5.05-8.21,8.56-11.69-2.19-7.76-10.76,1.13-2.47,16.67-22.34,18.87-24.13,1.15-.94,3.2-2.54,4.71-2.11.89.25,3.5,5.21,3.64,5.95Z" style="fill: #e92468;"/>
          <path d="M86,169.02c-.15,3.31.1,6.68,0,10v1c-1.47,4.13-5.28,7.16-10,6-.07-.02-.56-.67-1-1-.36-.27-2.9-3.6-3-4,1.58-.66,1.58-4.34,0-5-.04-.98-.08-2.03,0-3,5.48.85,8.85-2.51,8-8,2.9.25,4.35,1.82,6,4Z" style="fill: #4c2a60;"/>
          <path d="M97,132.02c.52,6.26-1.8,12.93,3,18-.34.09-2.86.93-3,1-8.24-.55-5.13-11.15-6-16,2.02-1.3,3.29-3.45,6-3Z" style="fill: #d01f5a;"/>
          <path d="M102,150.02c.33-.05.68.06,1,0l-.5.98-.5-.98Z" style="fill: #d01f5a;"/>
          <path d="M86,180.02v-1c.88.6.09.74,0,1Z" style="fill: #e22462;"/>
          <path d="M99,130.02c-.62.62-.95,1.16-2,1-.06-.34.08-.72,0-1h2Z" style="fill: #d01f5a;"/>
          <path d="M100,129.02c-.31.12-.76-.13-1,0l.5-.98.5.98Z" style="fill: #e22462;"/>
          <path d="M93,108.02c3.65.97,1.41,1.61,2,2h-2s0-2,0-2Z" style="fill: #fd536a;"/>
          <path d="M87,106.02h-1c.05-.66-.06-1.34,0-2l1,2Z" style="fill: #bb3d51;"/>
          <path d="M80,165.02c.85,5.49-2.52,8.85-8,8,.45-5.48,1.26-8.59,8-8Z" style="fill: #452552;"/>
          <path d="M72,181.02c-.3-1.19.05-3.51,0-5,1.58.66,1.58,4.34,0,5Z" style="fill: #452552;"/>
        </g>
      </g>
    </g>
  </g>
  <g id="leef">
    <g id="leef_1" data-name="leef 1">
      <path d="M50,32.02c2.18.38,1.79,3.54,2.11,3.85.57.55,2.8.04,3.89.15,1.24,4,3.54,7.26,6.95,9.62,1.23,3.98-14.5,15.94-17.69,19.14-1.34,1.34-2.83,1.49-2.26,4.24-3.58.02-7.21,0-10.5,0h-15l-15.5-3c.08-.65-.14-1.45,0-2,1.85-.53,2.16-2.22,2-4,8.36-21.8,24.07-26.1,46-28Z" style="fill: #5d801a;"/>
      <path d="M86,31.02c14.54.4,30.8-.96,44,6-.32-.05-.67.03-1,0-4.24-.43-10.92-.7-13.96,2.58-3.34,3.61-5.64,5.51-9.05,8.9-5.27,5.23-10.53,11.12-12.99,18.01l2.01.51c-.19.12.49,3.08-3,2-4.07-2.51-3.9-3.11-7-6,2.5-1.82,3.35-14.71,1.87-15.89l-3.93-.75.06-15.36c1,.05,2-.03,3,0Z" style="fill: #7fae2d;"/>
      <path d="M150,54.02c2.44,4.17,4.74,7.29,5.01,12.54s-.04,3.77-3.01,5.46h-46c.15-2.04-2.47-2.49.52-2.96,9.23-1.45,24.69-2.06,32.69-6.11,3.1-1.57,6.67-8.28,10.79-8.93Z" style="fill: #bcef78;"/>
      <path d="M144,47.02c-4.51,0-7.54,5.56-10.77,7.96-10.88,8.07-17.16,7.27-28.42,11.14-.21.07-3.14,2.03-3.76,2.42-2.79,1.76,3.62,3.95,4.95,3.48h46c-1.85,1.06-2.71,1.69-5,2-1.25.17-2.7-.07-4,0-11.83.62-34.27,1.35-45-2-3.06-.95-3.51-1.47-6-3,3.49,1.08,2.81-1.88,3-2,5.74-3.43,18.17-5.72,26.51-10.99,7.17-4.53,10.13-8.71,15.49-15.01,4.97,3.16,3.54,2.44,7,6Z" style="fill: #9bd13e;"/>
      <path d="M144,47.02c3.03,3.11,2.98,1.84,6,7-4.12.64-7.69,7.36-10.79,8.93-8.01,4.05-23.47,4.66-32.69,6.11-2.99.47-.37.93-.52,2.96-1.34.47-7.75-1.72-4.95-3.48.61-.39,3.55-2.34,3.76-2.42,11.26-3.88,17.54-3.07,28.42-11.14,3.23-2.4,6.27-7.96,10.77-7.96Z" style="fill: #a9dc58;"/>
      <path d="M43,69.02c3.58-.02,6.36,2.42,9.41,1.92,3.33-.55,6.44-3.08,10.59-1.92-.19.27.19,1.39-.03,1.98l-1.74-.69c-1.67,3.03-8.73,3.46-12.23,3.71-10.78.76-28.31.9-39,0-3.73-.31-9.11-.58-9.1-5.54,0-1.4,1.06-2.2,1.1-2.46l15.5,3h15c3.29,0,6.92.02,10.5,0Z" style="fill: #73943d;"/>
      <path d="M137,41.02c-5.36,6.3-8.32,10.48-15.49,15.01-8.34,5.27-20.77,7.56-26.51,10.99-.18-1.04.05-1.33.86-1.89,6.39-4.44,21.16-12.02,26.04-16.7,2.61-2.51,5.19-8.11,7.1-11.4.33.03.68-.05,1,0,4.11.65,4.57,2.46,7,4Z" style="fill: #93c730;"/>
      <path d="M83,2.02c.27.17,1.38-.39,2.08.62,2.64,3.85-.07,22.65.92,28.38-1-.03-2,.05-3,0-.66-.03-1.35.07-2,0v-2c.02-1.33.05-2.67,0-4-.27-7.65-3.45-17.31,2-23Z" style="fill: #a9dc58;"/>
      <path d="M78,.02c-2.54.96-1.63,2.86-2.34,4.69-.14.36-1.63.34-1.67.9-.09,1.48,1.66,13.78,2.32,15.11l4.68,4.3c.05,1.33.02,2.67,0,4,0,.12-.85.5,0,1v1c-4.69-.52-1.26-2.21-7-1l-2-5c.22-6.93-3.05-24.51,6-25Z" style="fill: #7fae2d;"/>
      <path d="M83,2.02c-5.45,5.69-2.27,15.35-2,23l-4.68-4.3c-.66-1.34-2.42-13.63-2.32-15.11.04-.56,1.53-.54,1.67-.9.71-1.83-.2-3.73,2.34-4.69,2.97-.16,3.12.82,5,2Z" style="fill: #8bbe26;"/>
      <path d="M74,30.02c-.28.06-.9.89-2,1-1.17,10.05-8.35,5.79-16,5-1.09-.11-3.32.4-3.89-.15-.32-.31.06-3.47-2.11-3.85,7.14-.62,14.84-.31,22-1,.22-1.86-.06-4.05,0-6l2,5Z" style="fill: #73943d;"/>
      <path d="M2,64.02c.82-3.26,1.78-3.43,2-4,.16,1.78-.15,3.47-2,4Z" style="fill: #73943d;"/>
      <path d="M74,30.02c5.74-1.21,2.31.48,7,1,.65.07,1.34-.03,2,0l-.06,15.36,3.93.75c1.48,1.18.63,14.07-1.87,15.89-2.09-1.95-5.03-4.01-7-6-.25-.25.56-2.03-.51-2.02-3.33-.06-9.9,7.55-10.49,11.02-1.28.72-3.17,1.83-4,3-4.15-1.16-7.26,1.36-10.59,1.92-3.05.51-5.83-1.94-9.41-1.92-.57-2.75.92-2.9,2.26-4.24,3.19-3.19,18.92-15.16,17.69-19.14-3.41-2.36-5.71-5.62-6.95-9.62,7.65.79,14.83,5.05,16-5,1.1-.11,1.72-.94,2-1Z" style="fill: #719c1b;"/>
      <path d="M129,37.02c-1.91,3.29-4.49,8.9-7.1,11.4-4.88,4.68-19.65,12.27-26.04,16.7-.81.56-1.04.85-.86,1.89l-2.01-.51c2.46-6.88,7.73-12.78,12.99-18.01,3.42-3.39,5.71-5.29,9.05-8.9,3.04-3.28,9.72-3.01,13.96-2.58Z" style="fill: #8bbe26;"/>
      <path d="M85,63.02c3.1,2.89,2.93,3.49,7,6,2.49,1.53,2.94,2.05,6,3l-3,1c-1.75-1.01-5.04-2.4-7-3l-14-8c1.12-1.21,1.46-4.34,4-5,1.97,1.99,4.91,4.05,7,6Z" style="fill: #8b1c32;"/>
      <path d="M81,30.02c-.85-.5,0-.88,0-1v1Z" style="fill: #8bbe26;"/>
      <path d="M67,66.02c.58-3.47,7.16-11.08,10.49-11.02,1.08,0,.27,1.77.51,2.02-2.54.66-2.88,3.79-4,5-2.79,3.01-4.81,2.77-7,4Z" style="fill: #9bd13e;"/>
    </g>
  </g>
</svg>