<?xml version="1.0" encoding="UTF-8"?>
<svg id="Tomato" xmlns="http://www.w3.org/2000/svg" xmlns:xlink="http://www.w3.org/1999/xlink" viewBox="0 0 895.25 800.88">
<defs>
<style>
    #Tomato { 
    transition: all 0.5s ease; 
    /* ensures the transform origin is calculated relative to the element’s bounding box */
    transform-box: fill-box;
    /* tells it to rotate around its own center. */
    transform-origin: center;
    }

    #Tomato:hover #Layer_1 { 
       transform: translateY(-90px);
    }
 #Tomato:hover #leef { 
       transform: translateY(-90px);
    }
    
    </style>
</defs>

  <defs>
    <linearGradient id="linear-gradient" x1="447.34" y1="957.58" x2="521.79" y2="1132.39" gradientTransform="translate(171 -896)" gradientUnits="userSpaceOnUse">
      <stop offset="0" stop-color="#88be2e"/>
      <stop offset=".81" stop-color="#a7db54"/>
      <stop offset="1" stop-color="#8ec438"/>
    </linearGradient>
  </defs>
  <g id="Layer_1" data-name="Layer 1">
    <g id="body">
      <g id="body-2" data-name="body">
        <path d="M127.02,426.23l2.94,3.64c16.3,52.07,48.09,100.31,89.53,134.36,11.7,5.63,21.97,12.73,30.8,21.29,15.16,9.08,31.26,18.49,47.64,24.41,67.42,66.14,161.61,109.66,257.4,117.51,64.33,5.28,117.67-21.81,172.44-52.01l3.25-.2-2.94,4.27c-48.86,44.75-102.54,84.71-160.29,116.24-1.11,1.78-2.37,3.27-3.77,4.49-72.18,1.07-144.81.65-217,0-.81-.13-1.65-.43-1.91-1.16-2.61-7.47-4.15-10.01-12.13-13.67-30.23-14.59-59.26-34.7-86.04-56.3-50.56-40.79-89.01-88.86-126.71-140.46-10.9-5.35-17.32-8.6-25.01-18.86-1.14-3.85-2.87-5.37-5.21-4.55l-2.1-2.49c-1.85-22.76-3.43-49.48-1.14-72.11,1.13-11.16,2.64-24.99,11.15-32.71.15-7.71,3.4-14.82,9.76-21.34.65-8.07,1.63-13.87,10.77-8.49,1.97-3,6.53-5.64,8.55-1.86Z" style="fill: #d53d64;"/>
        <path d="M90.02,565.23l3.99-5c.64,2.4.95,5.16,2.14,7.37,1,1.84,9.61,11.18,11.38,12.62,2.46,2,11.17,3.17,14.52,7.47,3.04,3.9,5.63,8.08,8.97,12.04,16.07,19.04,29.75,39.98,46.03,58.97,38.26,44.65,84.37,82.88,134.67,113.33,8.06,4.88,23.96,11.53,30.27,16.73,2.64,2.18,5.69,7.91,5.04,11.46-89.8-.81-153.3-12.5-225-69-30.93-48.63-33.72-103.15-33.83-160.37,0-.92.28-1.85.59-2.8s.76-1.91,1.24-2.83Z" style="fill: #df3165;"/>
        <path d="M893.02,519.23c-3.98,33.72-15.32,69.52-30,100-.84.65-1.92.8-3.23.45-56.47,60.8-121.79,117.72-188.98,163.83l-.79,1.71c-38.42,11.79-65.84,14.4-106,15l-.02-4.46c18.81-11.97,39.06-22.07,57.54-34.51,39.03-26.28,73.9-55.58,109.48-86.02l2.82-4.17c24.9-22.18,49.83-44.32,74.79-66.42l4.39-2.41c26.84-26.29,51.7-53.23,75.04-82.47l4.96-.53Z" style="fill: #c02e55;"/>
        <path d="M151.02,219.23c-14.14,20.67-26.8,55.07-30,80-1.04-2.18-4.56,6.19-5.32,8.91-3.32,11.98-1.14,20.13,8.77,28.14l.55,2.95c-.69,2.82-5.47,3.04-6,0l-15.84-3.7c-9.64-4.15-12.56-3.51-19.38,4.29-30.44,66.69-56.19,140.59-65.3,213.38-.59,5.54-2.69,16.75-8.48,8.03C3.27,535.28.26,511.04.02,484.23c.38-2.34,1.21-3.45,2.47-3.34,16.51-73.38,45.82-145.55,79.14-210.2l-1.61-2.45c18.01-20.5,37.96-39.05,61-54,2.75-1.74,10.04,1.57,10,5Z" style="fill: #b8274e;"/>
        <path d="M139.02,355.23c2.5,1.7,2.19,5.24-.93,10.64,3.99,3.47,3.32,6.13.42,10.17.03,9.44,0,18.91-.1,28.38l-1.39,1.81c.48.74.63,1.55.24,2.34-1.89,3.88-2.99,6.53-3.14,11.16-.59,3.57-3.81,9.83-7.11,6.5-.96.36-3-.04-4.76.69-1.31.54-1.66,3.16-3.89,3.12-1.81-.04-4.49-3.1-7.27-1.71-.64.53-.93,7.25-1.54,8.95-1.29,3.62-7.5,9.18-8.79,12.21-1.39,3.26-.14,6.23-.95,9.05-.56,1.93-3.97,3.58-5.03,5.97-11.15,25.09-5.74,73.04-4.77,100.73s-.48,56.38,4.24,85.26c2.86,17.47,10.61,41.03,17.58,57.42,3.25,7.65,9.12,15.06,10.18,23.32-31.85-25.1-55.02-51.22-76-86,.81-1.13,2.02-1.38,3.65-.76l-1.94-45.64c-.21-3.2,0-6.18,2.29-8.6-1.27-22.12,4.05-43.98,9.72-65.26,9.32-35.01,22.32-69.05,36.99-102.04.87-6.87,3.42-11.34,7.65-13.41,1.53-11.02,4.88-21.04,9.23-31.7,1.78-4.38,6.33-14.33,9.71-17.24,2.86-2.46,12.83-7.9,15.7-5.35Z" style="fill: #d12d64;"/>
        <path d="M119.02,339.23l-1.76,1.81c-10.16-2.92-27.07-3.17-26.36,11.01l-1.58,5.37c-28.08,53.39-37.01,115.72-39.45,175.98.09,19.39.14,38.33.15,56.82-.8,12.17.29,24.49.63,36.66.15,5.47,1.23,12.94,1.01,17.71-.23,5.13-3.13,1.66-5.64.63-16.25-26.95-28.03-53.35-36-84l4.01,1.51c2.19-1.67,4.45-26.25,5.27-30.74,10.77-58.81,31.53-125.32,56.81-179.2,1.59-3.38,4.06-10.94,5.86-13.89.67-1.09,6.57-5.34,7.75-7.5,8.11-2.48,20.96,6.24,29.31,7.81Z" style="fill: #c5295a;"/>
        <path d="M670.02,785.23c-2.52-1.28-.45-2.75.64-3.86,7.24-7.33,20.67-14.4,29.25-20.75,44.29-32.79,88.81-71.83,127.64-110.36,11.21-11.13,21.42-23.23,32.99-34.01l2.48,2.99c-38.75,80.47-107.7,139.82-193,166Z" style="fill: #b7274e;"/>
        <path d="M.02,484.23c-.77-82.4,26-154.52,80-216l4.01-.49c.12,1.22-.11,2.36-.48,3.52-3.39,10.57-14.47,27.92-19.7,39.3-25.24,54.92-45.73,112.38-59.73,171.27L.02,484.23Z" style="fill: #af234a;"/>
        <path d="M314.02,562.23c3.85.99,2.38,2.5,3.55,3.91,2.28,2.75,27.25,6.14,32.45,7.1l-1,2.98c7.74,2.12,16.77,1.68,24.28,4.28,2.99,1.03,2.89,3.06,5.4,3.5,6.62,1.15,12.83.09,18.74.29,4.31.15,7.66,4.36,10.28,4.76,1.76.27,3.82-.91,5.8-.91,4.75,0,22.59,11.71,28.47,14.61,58.53,28.86,125.16,41.9,190.39,34.35,50.93-5.89,99-23.47,143.15-48.86l.49,3.98c3.59-1.32,6.96-3.58,10.99-2.99-.21,2.4-9.32,6.55-6.99,8.98,1.19,1.25,10.38-7.96,13.99-5.99-.84,3.04-4.52,4.56-3.99,7.99l7.99-2.99c-4.21,12.86,6.13.77,9,3,.5,2.23-7.83,6.37-6,7.98,2.85,2.51,7.03-9.08,12-5.99-26.55,26-53.66,48.75-82,73-13.13,6.82-25.89,14.76-39.14,21.36-46.98,23.43-85.98,37.17-139.36,32.63-82.22-6.99-166.22-42.38-229.98-94.02-7.15-5.8-20.12-20.1-26.13-23.87-3.33-2.09-9.09-1.96-14.33-5.67-9.54-6.75-17.47-8.82-27.4-14.6-7.22-4.2-9.48-8.28-14.73-12.27-6.51-4.96-17.09-9.52-24.27-14.73-13.52-9.81-17.88-17.02-28.16-28.84-18.04-20.75-26.75-31.71-39.33-56.67-8.58-17.01-16.96-33.53-21.18-52.32,8.67-3.25,2.76-15.26,10-20-.03-.84,0-1.82.64-2.29,12.53-9.34,15.55-5.92,20.51,7.3,7.09,22.27,13.66,42.56,27.51,61.92,29.9,41.79,75.36,71.71,124.45,85.95l3.89,3.12Z" style="fill: #df3165;"/>
        <path d="M439.02,304.23c-9.2,2.42-15.34,9.04-18.73,17.76-2.59,6.64-.01,6,.68,10.79,3.93,27.27,10.11,52.24,17.78,78.21,2.86,9.68,5.78,21.95,10.06,30.94,9.27,19.42,28.41,42.72,44.71,55.29,1.55,1.19,10.43,4.63,7.5,8-.26.3-7.3,1.78-7.7,1.77-1.45-.03-2.32-1.58-3.75-1.67-3.34-.2-11.01,2.37-14.06,1.97-2.43-.31-2.07-2.82-3.2-3.1-1.25-.31-6.38-.23-7.85-.02-4.22.62-6.7,3.86-10.45,5.04,2.22-11.36-1.37-4.28-5.98-2.47-1.67.65-10.97,2.44-12.68,2.44-4.95-.01-7.05-4.3-15.34-1.96-3.73,1.5-7.16.6-10.3-2.7-5.14,2.13-17.02,5.46-18.7-1.63l-17.49,1.16c-2.93-.26-5.57-.81-6.98-3.65-11.36.75-21.84-1.15-31.46-5.7-13.18-.62-23.87-5.83-35.12-12.34-12.1-4.2-23.72-9.39-34.86-15.56-29.89-26.25-50.89-60.96-52.94-102.21-8.17-8.22-17.61-15.98-29.36-18.1l-1.8-2.27c-2.26-1.24-1.1-1.56,1-2,4.4-.82,8.84-1.62,13.33-1.55,37.21,1.17,74.88,2.27,111.63.81,32.03-1.27,59.2-14.86,86.73-30.23l4.31-.02c8.87-7.53,18.4-11.95,30.18-12.09,3.63-.04,10.77.85,10.82,5.09Z" style="fill: #da1656;"/>
        <path d="M181.02,344.23c12.88,1.38,24.61,10.37,32.94,19.65,3.06,31.65,12.62,59.54,34.4,83.01,4.77,5.13,5.51,4.83,10.23,11.27,8.86,12.11,33.41,17.72,45.19,23.83,6.61,3.43,11.46,7.2,19.97,9.01s9.79-.1,18.34,4.66c6.49,3.61,18.4,1.48,25.48,2.92,1.14.23.9,2.14,2.2,2.64,7.38,2.81,16.57-1.74,22.63-.05,1.18.33.27,3.33,2.23,4.01.51.18,9.37-.78,10.82-.99,1.77-.25,3.72-2.04,4.91-1.81,1.4.27,5.7,6.22,9.64,4.86-6.72,1.9-5.16,3.67-7.97,6.53s-8.56,4.31-6.86,9.76c.53,1.71,5.75,4.83.81,7.25-3.04,1.49-5.43-2.22-8.2-2.89-4.66-1.13-12.4,7.18-16.77,8.87-3.08,3.15,2.71.13,2.98.49,2.03,2.74-7.09,7.99-10.36,6.87-2.05-.7-1.55-5.2-8.9-3.67-8.22,1.71-.03,6.61-.79,9.18-.62,2.09-11.36,4.49-8.94,6.62.34.3,11.68-2.64,7.99.99-.6.6-15.48,4.12-16.48,4.02-2.78-.28-3.86-4.06-6.23-4.79-.74-.23-8.18-1.18-8.6-1.08-2.15.53-2.33,3.79-3.31,3.95-3.16.51-10.84-8.3-14.37,2.92-54.66-14.03-110.14-51.99-138.81-101.69-10.09-17.5-13.15-33.91-20.16-51.84-4.53-11.6-6.69-8.95-14.74-3.61-1.16.77-2.75.79-3.3,1.15-2.78-5.57.1-12,.09-17.5,0-3.75-1.53-7.03-1.13-11.01.34-3.37,3.06-5.49,3.06-7,0-2.09-3.06-2.87-2.87-4.79.23-2.3,3.4-7.38,2.85-10.69l.9-2.58c3.92-1.71,7.89-3.32,11.92-4.8,9.01-3.29,20.37-6.81,29.18-3.62Z" style="fill: #db285f;"/>
        <path d="M714.02,356.23c8.09,3.31,18.59,10.86,15.55,21.04-.64,2.15-6.94,10.78-8.73,13.27-35.36,49.17-100.66,72.93-159.83,59.2-15.89-3.69-21.81-11.01-31.41-23.59-12.52-16.41-19.75-33.83-27.12-52.88-2.4-6.2-6.6-11.78-7.21-18.8-.08-.89.28-9.47.46-9.93.48-1.22,7.55-8.06,8.29-8.3.06-.79.29-1.99.85-2.03,67.68-4.97,139.38-.05,206.14,18.76,1.71.3,2.58,1.6,3.01,3.28Z" style="fill: #f14978;"/>
        <path d="M523.02,309.23c12.5,4.58,20.66,7.57,34,10-.7,2.28-2.58,1.95-4.45,2.06-19.29,1.11-50.41-.87-69.55-4.06-12.73-2.12-30.47-9.38-44-13-1.84-.49-3.98-2.46-7.61-2.89-11.93-1.39-23.08,4.42-33.39,9.89,1.12-6.15,10.2-12.69,15.76-16.15,12.2-7.6,23.15-7.69,36.91-4.29,24.13,8.77,48.25,14.92,72.34,18.43Z" style="fill: #d1294a;"/>
        <g id="body_2" data-name="body 2">
          <path d="M753.02,214.23c36.97,23.68,68.97,56.98,92.42,94.08,39.44,62.42,56.29,137.18,47.58,210.92-.25,2.3-2.23,2.75-3.89,2.07-21.03,26.17-43.19,51.87-67.43,75.16-1.23,1.18-2.65,2.16-4.1,3.13s-3.02,1.83-4.59,2.64c-3.85,1.77-7.39,4.49-10.62,8.16-3.45-.03-4.43-3-2.28-5.51-3.43.96-5.38-.94-5.06-4.4-5.32,2.82-8.91.62-5.66-5.19-6,5.89-16.97,6.87-8.39-2.86-3.12,1.86-5.65,1.63-7.6-.67-85.72,49.52-183.7,63.22-278.68,34.09-29.04-8.91-54.42-21.58-79.67-35.36-7.37,1.07-10.5-.37-16.98-4.12-6.59.3-13.18.17-19.76-.4-8.26-4.65-17.87-7.17-28.84-7.56-1.56-.65-2.12-1.91-2.11-3.53l-20.39-3.59c-7.48-.52-11.8-3.54-12.95-9.05l-1.46-1.86c2.81-7.52,8.86-6.63,14.68-3.28,4.36-6.91,15.01-3.08,19.52,2.19l6.95-1.56c-1.06-3.92,1.64-6.82,8.1-8.69-8.34-10.14,7.02-15.07,12.48-6.82,3.54-.34,7.09-1.02,4.38-4.83-.16-1.81,16.12-13.35,19.5-11.45,3.61,2.18,11.61,6.13,5.59-.87-1.79-5.13.51-9.37,6.89-12.72,2.8-4.83,3.81-5.27,9.37-5.11.87-2.84,3.58-3.59,8.13-2.24,7.66,3.93,17.9,1.72,24.35-3.56,3.09-.81,4.49,1.28,4.18,4.23,4.94-3.78,15.19-6.27,19.01-.31l12.1-1.95c2.5,1.3,15.55,2.46,9.62-1.62-25.62-17.64-46.58-44.55-56.08-74.47-10.4-32.77-17.73-67.05-24.17-100.69.15-8.88,11.81-25.1,21.85-22.39.51-.37,1.03-.72,1.6-.94,1.96-.79,35.83,9.69,40.43,11.54l1.97,2.4c8.11,3.79,15.43,9.6,21.48,16.24l-.48,2.76.48,2.12c-6.6,4.93-7.98,7.84-7.24,15.99,9.79,27.83,21.59,57.27,41.48,80.02,22.25,25.46,80.58,18.27,109.43,7.86,31.57-11.4,48.19-26.57,69.8-51.14,12.16-13.83,15.31-23.61-3.72-32.57l-.23-2.27.52-2.73c10.38-4.21,20.51-8.87,30.38-13.99,3.93-4.8,7.41-10.01,10.43-15.62,6.5-.98,13.06-1.53,19.68-1.66l-1.92-4.06c-.02-11.32-1.7-22.55-4.13-33.58l1.06-4.36-4.37-8.71c-5.08-16.95-12.32-33.3-22.13-48.05l-.5-4.24c-.26-3.08,7.41-6.51,10-5Z" style="fill: #e02863;"/>
          <path d="M325.02,562.23v2.99c-2.42-.18-5.78-.27-5-2.99h5Z" style="fill: #db285f;"/>
        </g>
        <path d="M504.02,301.23c5.47,1.55,12.92,5.77,19,8-.75,2.54-1.99,1.25-3.57,1.18-25.8-1.26-47.04-12.31-71-18.1-23.06-5.57-34.85,3.15-50.43,18.93-42.77,22.71-58.69,32.5-109.51,32.93-35.2.3-71.2-.71-106.49-1.93-18.72,1.92-38.9,2.14-57-3-12.81-9.44-16.4-21.22-9.48-35.98.34-.71,5.08-9.89,5.48-4.02-.98,7.65-1.25,15.27-1,23h191c7.31-.24,12.87-.98,20-2l4.22-2.67c27.17-3.79,51.16-15.76,74.33-29.84l2.45-.49c.54-4.13,8.88-10.39,13-10,10.29-2.81,21.6.15,31.4,4.61,15.55,7.22,31.42,13.68,47.6,19.39Z" style="fill: #c91d3f;"/>
        <path d="M119.02,339.23c1.95.19,4.04-.17,6,0,18.95,1.61,37.92,2.34,57,3l-1,2c-12.41-1.33-30.7,6.01-42,11-5.22,2.31-14.21,4.88-17.43,10.07-.63,1.02-.5,2.74-1.17,3.83-5.39,8.68-9.69,20.45-12.11,29.89-.77,3.02-.92,8.95-2.27,11.48-.85,1.59-2.95.94-3.79,1.95-.77.93-2.83,9.4-3.84,11.66-21.29,47.17-44.95,113.92-48.38,166.12-2.13-4.26-.61-9.82-1.02-14.48-4.88-56.41,4.56-132.66,23.52-186.51,4.28-12.15,13.41-25.75,16.26-36.74.61-2.34-.4-5.39.74-7.26.32-.51,6.74-6.16,7.55-6.46,8.53-3.18,13.45-.39,21.94.44Z" style="fill: #c82f59;"/>
        <path d="M425.02,277.23c8.03-7.2,14.9-16.32,22.53-23.97l15.47,15.97c2.43,3.56,5.79,6.21,9,9,8.15,7.06,16.81,13.34,26,19,2.02,1.24,4.22,2.42,6,4-6.36-1.81-13-2.76-19.52-4.98-13.4-4.57-33.27-16.42-46.09-17.91-4.37-.51-9.49.99-13.39-1.11Z" style="fill: #bb1f2b;"/>
        <g id="body_1" data-name="body 1">
          <path d="M557.02,319.23c6.13,1.12,12.22,2.47,18.46,3.04l199.54-.04c-.71,2.19-12.36.18-15.95,1.55-5.34,2.05-6.47,11.12-10.82,15.46-8.56,8.51-24.34,10.04-34.22,16.99-13.67-5.6-34.95-8.96-49.81-11.69-35.33-6.48-71.98-11.5-107.7-10.32l-52.49,2.01c-5.24-7.95-14.67-11.64-21-19l2.98-1.55c23.37,3.16,47.85,4.84,71.02,3.55Z" style="fill: #da3f58;"/>
          <path d="M753.02,323.23c.73,12.62-10.88,16.38-21.45,17.04-35.27-6.92-77.4-6.84-111.76-15.33-1.02-.25-3.01-.28-2.78-1.71h136Z" style="fill: #c93140;"/>
        </g>
      </g>
    </g>
  </g>
  <g id="leef">
    <g id="leef-2" data-name="leef">
      <g id="leef_4" data-name="leef 4">
        <path d="M498.02,141.23c30.92-44.22,80.47-72.41,134.46-77.04l197.97.02c1.07.16.55,6.46.58,8.02-1.65,18.26-6.05,36.37-11,54-12.51,34.83-36.08,67.17-67,88-2.53,1.7-7.03,3.94-10,5-3.23,1.66-9.71-5.01-7.42-8.51,4.05-1.5,6.52-3.33,7.42-5.49l1.81-3.51c33.24-22.98,54.9-58.47,68.16-96.05,8.09-22.93-.17-29.6-11.06-7.61-16.13,38.11-43.72,72.88-79.93,93.41,2.45,3.35,5.31,6.5,8.59,9.46l-.57,2.29c-1.49,2.6-4.52,2.5-9.07-.3-70.82-40.65-174.14-21.51-221.98,45.1,2.03,5.16,5.05,10.05,9.06,14.67l-1.01,2.53c-6.97-.79-11.87-8.99-15-15-5.09-3.04-13.26-14.45-10.6-21.26,1.47-3.76,14.26-15.53,17.6-18.45,46.28-40.52,101.24-59.53,162.86-53.7-13.57-8.15-29.4-11.58-45.07-12.47l-2.78-2.12c-.92,1.91-2.09,1.91-3,0-2.33.33-4.91.11-7-1-12.01,2.86-26.06,3.13-38,0-15.27,2.74-30.74,2.79-46,0-7.32-.02-14.68.04-22,0Z" style="fill: url(#linear-gradient);"/>
        <path d="M160.02,64.23c80.12-.09,149.07-10.46,212.01,48.49,8.92,8.35,17.05,18.55,23.99,28.51-5.32.06-10.68-.02-16,0l-1.85-2.03c1.8-21.19-12.82-28.47-31.44-31.49-70.98-11.52-140.06-9.37-209.06,11.05-14.63,4.33-13.58,13.79-8.47,27.59,6.57,17.72,28.55,38.74,47.23,41.22l1.59,1.66c-3.93,3.62-10.54,10.09-14,14-4.83,3.61-13.99-2.29-18.54-5.46-43.94-30.6-66.55-76.61-34.72-124.48,15.78-5.09,32.2-8.11,49.26-9.06Z" style="fill: #99cf33;"/>
        <path d="M160.02,64.23c-.67,2.36-2.71,1.76-4.42,2.09-8.09,1.53-39.21,4.47-43.53,8.47-3.22,2.98-9.2,16.89-10.53,21.47-12.21,42,9.26,73.67,41.55,97.41,5.44,4,14.18,9.44,20.93,9.57-3.2,3.61-10.52,12.37-13,16-2.55-1.57-7.88-3.56-10-5-5.63-3.83-14.84-11.73-20.01-16.49-36.47-33.55-58.24-83.78-57.99-133.52,32.32-.02,64.68.04,97.01,0Z" style="fill: #90c436;"/>
        <path d="M460.02,2.23l.13,2.17c-17.09,5.47-21.23,19.95-15.1,35.94l.63,4.83c-7.12,27.24-4.57,54.93,6.47,80.94,6.74,15.88,15.28,11.02,19.16-2.88l5.12-18.05c.81-2.15,1.86-2.51,3.59-.95.04,12.32-.03,24.68,0,37.01,1,.04,2-.04,3,0-4.3,12.17-13,24.66-27.83,20.33-5.12-1.5-9.6-7.34-16.12-7.88-4.87-.41-8.93,3.94-13.52-1.47-1.03-1.21-2.76-5.3-3.08-6.92-2.12-10.49-1.01-29.18-1.4-40.6-.79-23.13-2.08-46.68.09-69.83,1.41-15,5.49-13.73,13.84-23.16,2.49-2.81,6.47-7.75,7.03-11.47,5.53-.67,12.75.17,18,2Z" style="fill: #8cc831;"/>
        <path d="M415.02,141.23l1-113c-2.49,35.81,1.82,74.43.04,110.55-.14,1.11.43,1.96-1.04,2.45Z" style="fill: #8cc831;"/>
        <path d="M820.02,126.23l11-54c.36,18.79-4.75,36.59-11,54Z" style="fill: #9dd246;"/>
        <path d="M380.02,141.23c-77.13.3-140.9-8.38-202,48-5.91,1.84-10.98-1.74-15.92-4.58-19.45-11.19-37.39-29.95-38.01-54.03-.29-11.11,10.66-12.94,19.16-15.66,57.25-18.33,136-19.8,195.1-10.57,10.68,1.67,24.45,3.1,32.68,10.32s9.99,15.58,8.99,26.51Z" style="fill: #a0d839;"/>
        <path d="M743.02,205.23c-1.86,1.13-5.54,1.9-7.51,3.82-1.74-2.04-3.65-3.89-5.49-5.82-1.54-1.61-9.15-9.21-9.52-10.01-.56-1.21-.81-1.77-.02-3.01.68-1.07,13.25-8.26,15.85-10.17,21.75-15.97,41.22-39.13,54.21-62.79,3.62-6.59,13.32-31.03,18.73-33.26,11.14-4.58,9.8,7.02,8.01,14-9.95,38.68-39.77,86.25-74.26,107.24Z" style="fill: #b7e96d;"/>
        <g id="leef_5" data-name="leef 5">
          <path d="M480.02,104.23c-2.04.62-1.88,2.55-2.33,4.17-1.6,5.73-6.56,26.92-12.38,28.62-3.77,1.1-8.68.9-11.14-2.45-1.57-2.14-5.58-11.44-6.66-14.34-8.2-22.12-9.23-42.08-6.23-65.22.39-3,2.34-6.33,2.39-9.07.11-6.33-3.91-14.16-3.43-20.89.44-6.24,4.11-14.17,9.43-17.65l10.34-5.16c10.17,3.55,18.3,14.1,19.74,24.76,2.92,21.53.19,54.39.26,77.24Z" style="fill: #98d232;"/>
          <path d="M454.72,9.44c21.32-4.91,20.92,27.03,3.95,26.44-14.49-.5-16.59-23.52-3.95-26.44Z" style="fill: #ade15e;"/>
        </g>
      </g>
      <g id="leef_1" data-name="leef 1">
        <path d="M442.02.23c.48.21.92.44,1.2.8,1.65,2.08-5.02,10.08-6.73,11.99-13.78,10.82-14.18,19.47-14.3,37.05-.22,31.89.18,64.09,2.4,95.42,1.2,3.5,2.77,8.03,7.18,7.37,4.94-1.53,9.65-1.78,14.21,1.01,14.84,12.84,28.79,5.22,34.66-11.95l2.38-.69c4.98.14,10.02-.03,15,0,7.28-2.71,14.73-2.76,22,0,3.54.62,3.5,1.99,2.07,5.05-.81,1.73-16.85,11.42-19.6,12.77-21.89,4.9-32.16,20.04-43.86,37.88-6.47,8.19-10.96,11.01-19.41,16.02-10.26,12.47-20.97,24.59-32.14,36.34l-4.05.94-1.85-1.52c-16.38-77.27-137.29-73.88-125.44,16.07,2.83,21.48,9.68,31.72,32.43,31.62l34.54,1.29c1.94.02,3.12.34,3.33,2.54,1.2,1.91,2.39,6,1,8,.97,2.32-.59,4.19-4.66,5.59l-11.36,5.09.03,1.32c-3.94,3.86-15.42,5.14-20,2-63.66.34-127.33.34-191,0-3.43-6.33-3.02-17.02,1-23,.23-1.39-.34-2.49-1.55-3.34,4.57-26.47,14.07-52.32,28.18-75.2l3.37-1.46c-.37-.34-.69-.7-.84-1.12-.46-1.28,10.29-15.92,13.84-14.88l-.62-2.3c4.08-5.42,8.96-9.32,14.62-11.7.25-.92.54-1.83.95-2.67,3.15-6.44,23.99-19.4,31.38-23.63,37.33-21.33,76.54-23.62,118.44-24.02,15.5-.15,31.11.01,46.62.33.76.02,1.52.33,2.3.67s1.57.82,2.31,1.33c5.25-2.75,10.74-2.7,16,0,3.96-.05,16.51.82,19,0,.48-37.44.82-75.1,1-113,.94-13.54,12.37-26.34,26-28Z" style="fill: #8abb2b;"/>
        <path d="M730.02,203.23c2.18-.42,3.99.5,5.43,2.75,3.15-1.68,5.68-1.93,7.57-.75,3.74-.89.36,2.98.03,3.24-2.39,1.89-7.03,2.14-6.06,5.19.12.39,5.23,4.43,6.03,5.56,12.42,17.38,22.13,40.22,27,61-5.12-4.91-8.26-12.18-12.59-17.91-56.07-74.26-161.3-78.71-228.94-17.11-3.85,3.5-15.47,14.02-14.07,19.04,2.49,8.94,28.51,26.35,37.33,29.75,16.42,6.32,44.71,7.37,62.72,8.28,33.42,1.68,70.67,1.47,104.08,0,9.38-.41,26.7-4.26,34.9-2.97,4.25.67,18.22,11.86,17.39,16.29-1.39,7.5-17.6,3.7-22.29,3.6-32.59-.65-65.71.29-98,.09-31.15-.19-62.35,1.75-92.97-6.12-18.33-4.71-38.03-14.14-56.32-17.69-1.92-.37-3.77-1.19-3.25,1.77-9.88-2.26-20.89-10.25-26-19-1.16-3.26,1.77-3.28,4.36-2.37,45.63,24.59,96.01,40.16,148.65,39.42,42.17-.16,85.68-.09,127.42,1.46,20.98,1.5,8-13.2-4.07-13.42-49.18,4.18-101.76,4.54-152.1,2.25-21.72-.99-42.99-4.76-61.72-16.14-6.52-3.96-22.28-14.64-26.21-20.23-.83-1.18-1.23-2.54-1.34-3.98-1.73-4.83-10.54-12.12-10.01-17.44.27-2.79,8.1-12.24,10.48-14.59,54.05-53.3,134.15-68.74,203.89-37.83,5.9,2.62,12.62,8.5,18.64,7.86Z" style="fill: #a8de50;"/>
        <path d="M403.02,250.23c.7.44,1.3,1.05,1.4,1.92.2,1.74-14.69,15.32-17.4,17.08-.11.79-.26,1.56-.54,2.28-1.36,3.55-30.41,23.91-36.29,27.8l-4.16.91c-14.33-2.99-50.67,1.62-61.36-8.14-12.33-11.26-13.85-43.03-9.36-58.07,17.94-60.06,101.36-53.57,124.94,2.49,1.5,3.56,3.49,10.01,2.78,13.72Z" style="fill: #94cc23;"/>
        <path d="M311.02,322.23H120.02c63.37-1.53,127.74,2.04,191,0Z" style="fill: #b8274e;"/>
        <path d="M507.02,265.23c34.88,32.85,55.65,37.14,103.46,39.04,36.67,1.45,77.45.61,114.08-1,13.19-.58,32.38-7.33,40.32,7.59,5.71,10.71-17.86,7.39-24.42,7.4-18.44.04-37.38-.95-55.9-1.07-59.27-.39-98.06,4.1-155.31-15.69-20.15-6.96-32.74-14.17-51.23-22.76-1.44-.67-4.81-2.46-6-.51-3.69,1.14-10.56-5.27-9-9-.56-.89-1.21-3.99.49-3.98,2.92.02,24.11,16.2,30.78,18.2,3.71,1.11,9.74,2.48,9.74-2.69,0-16.05-6.2-15.06-11.02-26.53-1.4-1.67-1.73-3.01-1-4,4.4,5.46,9.91,10.21,15,15Z" style="fill: #9cda3c;"/>
        <path d="M614.02,142.23c19.1.57,41.26,5.55,56,17.99-66.03-10.28-137.41,13.94-181.5,64.01-.95,1.07-2.86,1.5-3.98,3.02-5.2,7.03,3.02,17.45,7.48,22.98.43,1.26.5,2.8,1,4-5.14-5.65-11.09-13.06-14.81-19.69-2.48-4.43-6.1-9.91-3.24-14.86,1.54-2.68,16.68-16.97,20.04-19.96,33.31-29.65,76.65-48.53,121.01-53.49l-2-3.99Z" style="fill: #99cc3d;"/>
        <g id="leef_3" data-name="leef 3">
          <path d="M770.02,280.23c3.22,13.74,5.53,27.77,5,42-6.74.1-13.37.77-19.88,2l-179.79.03c-7.22,0-13.33-1.67-18.33-5.04-9.41,1.33-23.26-3.08-32.16-7.2l-1.84-2.8c-1.93.83-5.3-.25-7.53-1.03-3.49-1.22-10.55-3.81-11.47-6.97-3.27-.97-5.27-2.3-6-4-4.29-5.76,4.83-3.99,9.07-2.49,28.67,10.62,57.53,21.05,88.52,22.54,53.47,1.23,108.46,1.89,161.83,2.03,12.5.03,14.65-4.52,5.32-13.11-6.81-6.27-11.46-6.32-20.43-5.78-44.45,5.51-91.68,4.06-136.97,2.51-19.27-.66-38.91-2.44-56.81-9.5-8.01-3.16-35.96-20.95-36.2-29.7-.32-11.46,32.26-34.18,39.57-38.72,75.31-46.78,177.55-25.19,218.1,55.22Z" style="fill: #afe657;"/>
          <path d="M551.36,264.57c53.34-47.94,143.42-40.14,183.88,19.94,6.1,9.05,7.63,9.95-4.42,13.02-9.33,2.38-17.07,1.23-26.34,1.66-41.53,1.91-97.04,3.43-137.67-4.25-6.61-1.25-27.53-7.86-27.43-16.22.01-1.14,10.31-12.65,11.98-14.15Z" style="fill: #bef869;"/>
        </g>
        <g id="leef_3-2" data-name="leef 3">
          <path d="M566.02,141.23c.07,2.4-1.31,2.63-3,3.5-8.9,4.6-19,7.41-28.02,11.98-16.9,8.56-52.35,32.71-63.96,47.04-6.31,7.79-7.69,10.01-3.19,19.15,6.98,14.18,26.73,31.94,26.26,47.84-.11,3.69-.9,7.13-5.1,6.07-7.39-1.85-25.37-16.26-31.03-22.04-.98-1-7.21-8.04-7.44-8.56-3.04-6.71,2.63-28.33-2.78-33.74-3.13-3.13-8.1,2.57-10.25,4.74-6.95,7.03-13.29,16.56-19.97,24.03-9.22,10.29-18.59,20.72-30.51,27.99,3.25-3,15.33-15.51,16-19,4.95-4.4,10.07-9.08,14.51-13.99,6.97-7.7,14.45-19.52,21.96-26.04,3.6-3.13,7.37-3.35,10.57-6.43,11.88-11.38,20.66-33.08,35.58-40.42,4.55-2.24,11.33-3.7,15.92-6.08,2.07-1.07,17.74-10.75,18.45-11.57,1.5-1.72,1.13-2.78,0-4.48,15.32.05,30.68-.01,46,0Z" style="fill: #8ec233;"/>
          <path d="M460.02,218.23c6.39,6.25,25.79,32.48,26.91,40.59.29,2.1.5,10.13-.37,11.46-2.78,4.26-18.3-8.56-21.02-11.07-15.78-14.6-15.18-21.02-14.53-41.97.88-9.48,5.78-4.13,9,1Z" style="fill: #87c522;"/>
          <path d="M460.02,218.23c-3.85-3.77-6.58-7.71-9-1,.05-1.62-.57-7.88,1.49-7.98,1.75-.08,7.26,6.63,7.51,8.98Z" style="fill: #8abb2b;"/>
        </g>
        <g id="leef_2" data-name="leef 2">
          <path d="M604.02,141.23c2.2,1.09,4.61,1.16,7,1,1-.02,2.01-.03,3,0,4.5.88,4.69,5.13-.21,6.25-34.77,4.39-68.05,16.93-96.99,36.71-4.51,3.08-40.3,30.86-40.89,37.95,3.47,10.95,9.17,21.32,17.09,31.09,9.98,5.55,23.59,38.52.84,30.56-10.03-4.9-19.67-10.51-28.91-16.81l-1.93,1.25-2.06.75-13.39-13.83-18.66,20.18c-1.2.69-2.5.98-3.89.9-3.67,3.29-8.92,7.09-13,10-14.07,7.58-28.55,14.52-43.45,20.83-6.14,1.84-17,4.95-21.55.17-1.55-2.59-2.98-5.19-1-8,12.84-11.28,28.36-19.36,41-31,16.82-14.38,31.55-31.19,45.12-48.61,9.78-12.63,19.14-17.55,20.07,2.7-.76,7.41-.73,14.74.08,22,11.89,15.04,60.29,55.26,31.04,3.74l-14.02-19.6c-12.6-16.15-2.2-26.35,10.6-37.41,25.79-22.27,54.51-39.18,86.09-50.82,12.63.01,25.38-.32,38,0Z" style="fill: #96c93a;"/>
          <path d="M412.02,287.23c-25.67,18.28-49.6,28.52-81,33-3.81.15-2.07-1.76-.52-3.02,3.65-2.97,12.79-4.66,16.52-8.98,21.62,3.21,41.05-12.34,60.02-20.47,1.17-.5,4.15-2.31,4.98-.53Z" style="fill: #94cc23;"/>
          <path d="M611.02,142.23c-.18,0-.71,1.31-3.42,1-1.45-.17-2.78-.72-3.58-2,2.39.06,4.81-.36,7,1Z" style="fill: #99cc3d;"/>
          <path d="M443.73,216.36c5.58-.81,4.7,14.5,4.29,18.37-.54,5.03-2.99,8.21-6.03,11.97-8.94,11.04-38.46,40.02-52.51,40.58-3.46.14-4.98-.35-4.03-4.07,1.6-6.25,21.49-24.52,27.08-30.96,8.62-9.92,17.96-24.42,26.95-33.05,1.07-1.03,2.81-2.62,4.25-2.83Z" style="fill: #a5d662;"/>
        </g>
      </g>
    </g>
  </g>
</svg>